<svg xmlns="http://www.w3.org/2000/svg" id="Goudy_Old_Style_font" viewBox="0 0 283.3 54">
  <style>
    .st0{fill:#223266}
  </style>
  <path d="M74.1 6c1.5 0 2.8.3 4 1l.8.5c.2.1.3.1.4.1.2 0 .3-.1.4-.2l.2-.4c0-.1.1-.1.2-.1.3 0 .4.3.4.8v2l.1.9.1.5c0 .3.1.5.1.7 0 .3-.1.5-.3.5-.1 0-.2-.1-.3-.3-.1-.3-.3-.8-.7-1.4-.4-.6-.8-1.1-1.1-1.5-1.4-1.5-3-2.3-4.7-2.3-1.5 0-2.8.6-3.8 1.9-1 1.3-1.4 2.9-1.4 4.9 0 2.6.8 4.7 2.4 6.3 1.2 1.2 2.5 1.8 3.9 1.8.8 0 1.7-.2 2.6-.6.9-.4 1.6-.9 2.2-1.5l.8-.9c.1-.1.2-.2.3-.2.2 0 .2.1.2.3 0 .3-.3.9-1 1.6-1.7 1.9-3.8 2.9-6.2 2.9-2.4 0-4.3-.8-5.8-2.3-1.5-1.5-2.2-3.5-2.2-6 0-1.3.3-2.7.8-3.9.5-1.3 1.3-2.3 2.2-3.1 1.5-1.4 3.3-2 5.4-2zm13.7 6.3l3.9 8.9c.2.5.4.8.7 1 .3.2.6.4 1 .4.1 0 .2.1.2.2 0 .2-.1.2-.2.2s-.2 0-.3-.1c-.4-.1-1.1-.1-2.1-.1s-1.6 0-2 .1h-.2c-.2 0-.2-.1-.2-.2s.1-.1.2-.2c.3-.1.5-.2.7-.4.2-.2.3-.4.3-.6 0-.3-.2-1-.7-2.1-.2-.3-.3-.5-.5-.6-.2 0-.8-.1-2-.1h-1.2l-1 .3c-.2.1-.4.5-.7 1.1l-.3.7c-.1.2-.1.4-.1.6 0 .7.5 1.1 1.5 1.2.2 0 .3.1.3.3 0 .2-.1.2-.3.2-.1 0-.2 0-.4-.1-.4-.1-.7-.1-1-.1-.3 0-.7 0-1.3.1-.4 0-.7.1-.8.1-.2-.1-.3-.1-.3-.3 0-.1.1-.2.2-.3.3-.1.6-.3.7-.5.2-.3.5-.8.8-1.6L85 15c.2-.4.3-.7.4-.9l.8-1.6.4-.8c.2-.4.3-.6.4-.6.1 0 .2.2.5.7l.3.5zm.3 5.3L87 15c-.3-.6-.5-.9-.6-.9-.1 0-.2.2-.4.6l-.1.3-1 2.3-.1.2c0 .1-.1.2-.1.2 0 .2.2.3.6.3h2.5c.2 0 .3-.1.3-.2.1 0 .1 0 0-.2zm9.8 2.7c0 1.1.1 1.7.4 1.8.1.1.4.1.8.1 1.9 0 3.3-.6 4.1-1.7.2-.3.4-.5.5-.5.1 0 .2.1.2.3 0 .7-.2 1.4-.7 1.9-.4.5-1 .8-1.7.8h-.8c-.1 0-.4 0-1-.1h-2c-.7 0-1.4 0-2.1.1h-.5c-.2 0-.2-.1-.2-.2s.1-.2.2-.2c.4-.1.6-.3.8-.6.1-.3.2-.8.2-1.4v-7.1c0-.9-.4-1.4-1.1-1.5l-.5-.1c-.2 0-.3-.1-.3-.3 0-.2.1-.3.3-.3h.9c.3 0 .6.1.8.1.3 0 .7 0 1.3-.1.4 0 .9-.1 1.4-.1.3 0 .5.1.5.2s-.1.2-.4.2c-.6 0-.9.4-.9 1.2v7.5zm9.9 0l.1.9c.1.4.2.8.5 1 .3.2.6.3 1 .3.3 0 .4.1.4.3 0 .2-.2.3-.6.3h-.7c-.7-.1-1.3-.1-1.8-.1-.6 0-1 0-1.4.1-.3.1-.5.1-.6.1-.1 0-.2-.1-.2-.2v-.1l.2-.2c.4-.1.7-.3.8-.5.1-.2.2-.6.2-1.1v-7.6c0-.5-.1-.9-.3-1.1-.2-.2-.5-.4-1-.4-.3 0-.5-.1-.6-.1-.1 0-.1-.1-.1-.2 0-.2.1-.2.2-.2s.3 0 .5.1c.2 0 .5.1 1 .1.3 0 .7 0 1.2-.1h.6c.6 0 1-.1 1.4-.1.2 0 .3.1.3.2v.2s-.1.1-.2.1c-.4.1-.7.2-.8.3-.1.2-.2.5-.2 1v7zm6.4-4.7c0 .3 0 .5.1.6.1.1.2.2.5.2h1.2c.4 0 .7-.1 1-.3.2-.2.4-.5.6-1.1.1-.1.1-.2.2-.2.2 0 .3.1.3.2v.5c0 .3 0 .7.1 1.2l.1 1.6v.4c0 .1-.1.2-.2.2s-.2-.1-.2-.2c-.1-.6-.3-1-.6-1.2-.3-.2-.7-.3-1.4-.3-.9 0-1.3.1-1.5.2-.1.1-.2.5-.2 1.2v1.7c0 .9.1 1.5.4 1.9.2.3.6.5 1.3.5.2 0 .3.1.3.2 0 .2-.1.2-.2.2h-2.6c-.4 0-.8 0-1.1.1-.4.1-.7.1-.8.1-.2 0-.3-.1-.3-.2s.1-.2.2-.2c.3-.1.6-.3.7-.6.1-.3.2-.8.2-1.4v-7c0-.7-.1-1.2-.4-1.4-.3-.2-.7-.4-1.2-.4-.1 0-.2-.1-.2-.2 0-.2.1-.3.3-.3h5.2c.8 0 1.6 0 2.4-.1h.7c.1 0 .2.1.2.4 0 .4 0 .6.1.6l.1.7v.3c0 .5-.1.7-.3.7-.1 0-.2-.1-.2-.2v-.6c-.2-.7-1-1.1-2.3-1.1h-1.4c-.3 0-.6.1-.7.2-.1.1-.2.3-.2.6v2.5zm12.3-4.5c1.8 0 3.2.5 4.3 1.6 1.1 1 1.6 2.4 1.6 4.1 0 1.8-.6 3.4-1.7 4.7-1.1 1.2-2.6 1.9-4.5 1.9-1.8 0-3.3-.5-4.4-1.6-1.1-1.1-1.7-2.5-1.7-4.3 0-.8.1-1.5.4-2.3.3-.8.7-1.4 1.1-1.9.6-.6 1.3-1.1 2.1-1.4.9-.7 1.8-.8 2.8-.8zm-.6.6c-1.1 0-2 .4-2.7 1.3-.6.8-1 2-1 3.5 0 1.8.4 3.2 1.2 4.4.8 1.1 1.9 1.7 3.2 1.7 1.2 0 2.1-.5 2.8-1.4.7-.9 1.1-2.2 1.1-3.7 0-.9-.2-1.8-.5-2.6-.3-.9-.8-1.5-1.3-2-.8-.8-1.7-1.2-2.8-1.2zm11 8c0 1.1.1 1.8.3 2.2.2.4.6.6 1.2.7.2 0 .4.1.4.3s-.1.2-.3.2h-.4c-.5 0-1-.1-1.4-.1h-1l-.7.1h-.9c-.2 0-.3-.1-.3-.2s.1-.2.2-.2c.4-.1.7-.3.8-.5.1-.2.2-.5.2-.9V14c0-.7-.1-1.1-.3-1.4-.3-.4-.7-.6-1.4-.7-.2 0-.4-.1-.4-.3s.1-.2.2-.2h.3c.4 0 .9.1 1.4.1.6 0 1.3 0 2.1-.1 1-.1 1.6-.1 2-.1 1.1 0 2 .3 2.7.9.7.6 1.1 1.3 1.1 2.2 0 .6-.2 1.1-.5 1.5-.3.5-.8.8-1.3 1.1-.1 0-.2.1-.2.2s0 .1.1.2.1.2.2.4l.8 1.3.9 1.6c.3.5.6.9.8 1.1.2.2.5.3.8.3h.6c.1 0 .2.1.2.2 0 .2-.2.4-.7.6-.5.2-.9.3-1.2.3-.6 0-1.1-.3-1.6-.9-.5-.6-1.1-1.7-1.9-3.3-.3-.6-.6-1-.8-1.2-.2-.2-.5-.3-1-.3h-.5l-.4.1c-.1 0-.1.2-.1.4v1.7zm0-6.7v3c0 .4 0 .6.1.7.1.1.3.1.7.1 1 0 1.6 0 1.9-.1.2 0 .5-.2.7-.3.4-.4.6-.9.6-1.6 0-.9-.3-1.6-.8-2.1-.6-.6-1.3-.8-2.1-.8-.4 0-.7.1-.8.2-.3.2-.3.4-.3.9zm13.6.2l4.5 5.1.3.3c.4.4.6.6.8.6.1 0 .2-.2.2-.5.1-1.3.1-2.5.1-3.6 0-1.3-.1-2.2-.4-2.7-.3-.5-.8-.7-1.6-.8-.2 0-.3-.1-.3-.2 0-.2.1-.2.2-.2.2 0 .5 0 1 .1.3 0 .5.1.7.1.4 0 1-.1 1.9-.2h.2c.2 0 .3.1.3.2s-.1.2-.3.3c-.7.1-1.1.8-1.1 2v.4l-.1 5.3v3.3c0 .2-.1.2-.2.2s-.2-.1-.3-.2l-7.8-8.6c-.1-.1-.2-.2-.3-.2-.1 0-.2.1-.2.4v3.5c0 1.8.1 3 .3 3.6.2.6.7 1 1.7 1.1.2 0 .3.1.3.2 0 .2-.1.3-.3.3h-.3c-.5-.1-1-.1-1.6-.1-.6 0-1.1 0-1.5.1h-.4c-.2 0-.2-.1-.2-.2s.1-.2.2-.2c.4-.1.7-.4.9-.7.2-.4.3-.9.3-1.6l.1-2v-3.7c0-1.8-.6-2.7-1.9-2.8-.2 0-.3-.1-.3-.2 0-.2.1-.2.3-.2h1c.4 0 .9 0 1.4-.1h.5c.2 0 .3 0 .4.1.1.1.3.3.6.7l.6.7c.1.2.2.4.3.4zm12.8 7.1l.1.9c.1.4.2.8.5 1 .3.2.6.3 1 .3.3 0 .4.1.4.3 0 .2-.2.3-.6.3h-.7c-.7-.1-1.3-.1-1.8-.1-.6 0-1 0-1.4.1-.3.1-.5.1-.6.1s-.2-.1-.2-.2v-.1l.2-.2c.4-.1.7-.3.8-.5.1-.2.2-.6.2-1.1v-7.6c0-.5-.1-.9-.3-1.1-.2-.2-.5-.4-1-.4-.3 0-.5-.1-.6-.1-.1 0-.1-.1-.1-.2 0-.2.1-.2.2-.2s.3 0 .5.1c.2 0 .5.1 1 .1.3 0 .7 0 1.2-.1h.6c.6 0 1-.1 1.4-.1.2 0 .3.1.3.2v.2s-.1.1-.2.1c-.4.1-.7.2-.8.3-.1.2-.2.5-.2 1v7zm9.7-8l3.9 8.9c.2.5.4.8.7 1 .3.2.6.4 1 .4.1 0 .2.1.2.2 0 .2-.1.2-.2.2s-.2 0-.3-.1c-.4-.1-1.1-.1-2.1-.1s-1.6 0-2 .1h-.2c-.2 0-.2-.1-.2-.2s.1-.1.2-.2c.3-.1.5-.2.7-.4.2-.2.3-.4.3-.6 0-.3-.2-1-.7-2.1-.2-.3-.3-.5-.5-.6-.2 0-.8-.1-2-.1h-1.2l-.8.1c-.2.1-.4.5-.7 1.1l-.3.7c-.1.2-.1.4-.1.6 0 .7.5 1.1 1.5 1.2.2 0 .3.1.3.3 0 .2-.1.2-.3.2-.1 0-.2 0-.4-.1-.4-.1-.7-.1-1-.1-.3 0-.7 0-1.3.1-.4 0-.7.1-.8.1-.2 0-.2-.1-.2-.2s.1-.2.2-.3c.3-.1.6-.3.7-.5.2-.3.5-.8.8-1.6l2.3-5.4c.2-.4.3-.7.4-.9l.8-1.6.4-.8c.2-.4.3-.6.4-.6.1 0 .2.2.5.7v.6zm.3 5.3l-1.1-2.6c-.3-.6-.5-.9-.6-.9-.1 0-.2.2-.4.6l-.2.4-1 2.3-.1.2c0 .1-.1.2-.1.2 0 .2.2.3.6.3h2.5c.2 0 .3-.1.3-.2.2-.1.2-.1.1-.3zM74.1 30.7c1.5 0 2.8.3 4 1l.8.5c.2.1.3.1.4.1.2 0 .3-.1.4-.2l.3-.4c0-.1.1-.1.2-.1.3 0 .4.3.4.8v2l.1.9.1.5c0 .3.1.5.1.7 0 .3-.1.5-.3.5-.1 0-.2-.1-.3-.3-.1-.3-.3-.8-.7-1.4-.4-.6-.8-1.1-1.1-1.5-1.4-1.5-3-2.3-4.7-2.3-1.5 0-2.8.6-3.8 1.9-1 1.3-1.4 2.9-1.4 4.9 0 2.6.8 4.7 2.4 6.3 1.2 1.2 2.5 1.8 3.9 1.8.8 0 1.7-.2 2.6-.6.9-.4 1.6-.9 2.2-1.5l.8-.9c.1-.1.2-.2.3-.2.2 0 .2.1.2.3 0 .3-.3.9-1 1.6-1.7 1.9-3.8 2.9-6.2 2.9-2.4 0-4.3-.8-5.8-2.3-1.5-1.5-2.2-3.5-2.2-6 0-1.3.3-2.7.8-3.9.6-1.3 1.3-2.3 2.2-3.1 1.4-1.4 3.2-2 5.3-2zm14.8 5.1c1.8 0 3.2.5 4.3 1.6 1.1 1 1.6 2.4 1.6 4.1 0 1.8-.6 3.4-1.7 4.7-1.1 1.2-2.6 1.9-4.5 1.9-1.8 0-3.3-.5-4.4-1.6-1.1-1.1-1.7-2.5-1.7-4.3 0-.8.1-1.5.4-2.3.3-.8.7-1.4 1.1-1.9.6-.6 1.3-1.1 2.1-1.4 1-.7 1.9-.8 2.8-.8zm-.6.6c-1.1 0-2 .4-2.7 1.3-.6.8-1 2-1 3.5 0 1.8.4 3.2 1.2 4.4.8 1.1 1.9 1.7 3.2 1.7 1.2 0 2.1-.5 2.8-1.4.7-.9 1.1-2.2 1.1-3.7 0-.9-.2-1.8-.5-2.6-.3-.9-.8-1.5-1.3-2-.8-.8-1.7-1.2-2.8-1.2zm10.8.1l3.5 7.7c.2.3.3.5.4.5.1 0 .2-.1.3-.3l3.2-6.9c.3-.6.5-1.1.7-1.2.1-.2.3-.2.5-.2h.9c.2 0 .5 0 .9-.1h.4c.2 0 .3.1.3.2s-.1.2-.2.2c-.5 0-.9.2-1.1.5-.2.3-.3.9-.3 1.6v.6l.2 5.3v.3c0 .8.1 1.4.4 1.7.3.4.7.6 1.4.7.2 0 .2.1.2.3 0 .2-.2.2-.6.2h-.5c-.7-.1-1.2-.1-1.5-.1-.6 0-1.1 0-1.5.1-.4.1-.6.1-.8.1-.1 0-.2-.1-.2-.2s.1-.2.2-.2c.3-.1.6-.2.7-.4.1-.2.2-.5.2-.9v-.4l-.2-5.7c0-.2 0-.2-.1-.2s-.2.2-.4.5l-3.2 6.8-.1.3c-.2.4-.3.5-.4.5-.1 0-.3-.3-.6-.9l-.4-.9-2.7-6.1-.1-.1-.1-.1c-.1 0-.1.1-.1.4v.3l-.1 4.3v.3l.1.8c.2.8.6 1.4 1.3 1.5.3.1.4.2.4.3 0 .2-.1.2-.3.2h-.5l-.6-.1H98c-.5 0-.9 0-1.2.1-.2 0-.3.1-.4.1-.2 0-.3-.1-.3-.2s.1-.2.2-.2c.4-.1.8-.4 1-.8.2-.4.3-.9.3-1.6l.2-5.6v-.6c0-.7-.2-1.2-.5-1.6-.3-.4-.8-.6-1.4-.6-.2 0-.3-.1-.3-.2 0-.2.1-.3.4-.3h1.1c.3 0 .5 0 .8-.1.4 0 .6-.1.8-.1 0 0 .2.2.4.5zm15.9 0l3.5 7.7c.2.3.3.5.4.5.1 0 .2-.1.3-.3l3.2-6.9c.3-.6.5-1.1.7-1.2.1-.2.3-.2.5-.2h.9c.2 0 .5 0 .9-.1h.4c.2 0 .3.1.3.2s-.1.2-.2.2c-.5 0-.9.2-1.1.5-.2.3-.3.9-.3 1.6v.6l.2 5.3v.3c0 .8.1 1.4.4 1.7.3.4.7.6 1.4.7.2 0 .2.1.2.3 0 .2-.2.2-.6.2h-.5c-.7-.1-1.2-.1-1.5-.1-.6 0-1.1 0-1.5.1-.4.1-.6.1-.8.1-.1 0-.2-.1-.2-.2s.1-.2.2-.2c.3-.1.6-.2.7-.4.1-.2.2-.5.2-.9v-.4l-.2-5.7c0-.2 0-.2-.1-.2s-.2.2-.4.5l-3.2 6.8-.1.3c-.2.4-.3.5-.4.5-.1 0-.3-.3-.6-.9l-.4-.9-2.7-6.1-.1-.1-.1-.1c-.1 0-.1.1-.1.4v.3l-.1 4.3v.3l.1.8c.2.8.6 1.4 1.3 1.5.3.1.4.2.4.3 0 .2-.1.2-.3.2h-.5l-.6-.1h-.7c-.5 0-.9 0-1.2.1-.2 0-.3.1-.4.1-.2 0-.3-.1-.3-.2s.1-.2.2-.2c.4-.1.8-.4 1-.8.2-.4.3-.9.3-1.6l.2-5.6v-.6c0-.7-.2-1.2-.5-1.6-.3-.4-.8-.6-1.4-.6-.2 0-.3-.1-.3-.2 0-.2.1-.3.4-.3h1.1c.3 0 .5 0 .8-.1.4 0 .6-.1.8-.1 0 0 .3.2.4.5zm21.7-.6h.2c.1 0 .3 0 .7.1h1.7c.3 0 .5 0 .8-.1h.3c.2 0 .2.1.2.2s-.1.2-.2.2l-.3.1c-.4.1-.7.5-.7 1.4v1.8c0 1.6-.1 3-.2 4-.2 1-.4 1.8-.8 2.3-.9 1.3-2.3 2-4.4 2-1.5 0-2.6-.3-3.4-.8-1.1-.7-1.6-2.2-1.6-4.3l.1-3.3v-1.6c0-.4 0-.7-.1-.8-.1-.2-.2-.3-.5-.4l-.9-.3c-.2 0-.3-.1-.3-.3 0-.2.1-.2.3-.2h.3c.7.1 1.3.1 1.7.1.6 0 1.2 0 1.9-.1h.6c.3 0 .4.1.4.3 0 .1 0 .2-.1.2 0 0-.2.1-.3.1-.3.1-.6.2-.7.4-.1.2-.2.6-.2 1.1l-.1 2.2v1.5c0 1.4.1 2.4.2 2.9.1.6.4 1.1.9 1.5.7.6 1.6.9 2.6.9 1.1 0 2-.3 2.7-1 .5-.4.8-1.1 1-1.9.2-.8.3-2.1.3-3.6V38c0-.5-.2-.9-.5-1.2-.3-.3-.7-.4-1.2-.4-.2 0-.3-.1-.3-.3-.3-.1-.2-.2-.1-.2zm10 2l4.5 5.1.3.3c.4.4.6.6.8.6.1 0 .2-.2.2-.5.1-1.3.1-2.5.1-3.6 0-1.3-.1-2.2-.4-2.7-.3-.5-.8-.7-1.6-.8-.2 0-.3-.1-.3-.2 0-.2.1-.2.2-.2.2 0 .5 0 1 .1.3 0 .5.1.7.1.4 0 1-.1 1.9-.2h.2c.2 0 .3.1.3.2s-.1.2-.3.3c-.7.1-1.1.8-1.1 2v.4l-.1 5.3v3.3c0 .2-.1.2-.2.2s-.2-.1-.3-.2l-7.8-8.6c-.1-.1-.2-.2-.3-.2-.1 0-.2.1-.2.4v3.5c0 1.8.1 3 .3 3.6.2.6.7 1 1.7 1.1.2 0 .3.1.3.2 0 .2-.1.3-.3.3h-.3c-.5-.1-1-.1-1.6-.1-.6 0-1.1 0-1.5.1h-.4c-.2 0-.2-.1-.2-.2s.1-.2.2-.2c.4-.1.7-.4.9-.7.2-.4.3-.9.3-1.6l.1-2v-3.7c0-1.8-.6-2.7-1.9-2.8-.2 0-.3-.1-.3-.2 0-.2.1-.2.3-.2h1c.4 0 .9 0 1.4-.1h.5c.2 0 .3 0 .4.1.1.1.3.3.6.7l.6.7c.2.2.3.4.3.4zm12.9 7.1l.1.9c.1.4.2.8.5 1 .3.2.6.3 1 .3.3 0 .4.1.4.3 0 .2-.2.3-.6.3h-.7c-.7-.1-1.3-.1-1.8-.1-.6 0-1 0-1.4.1-.3.1-.5.1-.6.1s-.2-.1-.2-.2v-.1l.2-.2c.4-.1.7-.3.8-.5.1-.2.2-.6.2-1.1v-7.6c0-.5-.1-.9-.3-1.1-.2-.2-.5-.4-1-.4-.3 0-.5-.1-.6-.1-.1 0-.1-.1-.1-.2 0-.2.1-.2.2-.2s.3 0 .5.1c.2 0 .5.1 1 .1.3 0 .7 0 1.2-.1h.6c.6 0 1-.1 1.4-.1.2 0 .3.1.3.2v.2s-.1.1-.2.1c-.4.1-.7.2-.8.3-.1.2-.2.5-.2 1v7zm8.9-6.9v6.4c0 1 .1 1.6.4 2 .3.4.8.6 1.5.7.2 0 .3.1.3.3 0 .1-.1.2-.3.2h-.8l-1.1-.1h-1.2l-1.9.1h-.4c-.2 0-.3-.1-.3-.2s0-.2.1-.2.2-.1.3-.1c.4 0 .8-.2 1-.5.2-.3.4-.7.4-1.2v-8c0-.4-.2-.7-.7-.7-1.1 0-1.9.1-2.3.2-.3.1-.5.3-.6.4-.1.2-.2.5-.4 1.2l-.1.2c-.1.2-.2.4-.3.4-.2 0-.3-.1-.3-.3 0-.2 0-.4.1-.7l.1-.7.1-.8.1-.5c0-.2.1-.3.4-.3h5c1.3 0 2.8 0 4.3-.1h.6c.3 0 .5.1.5.4v.6c0 .1 0 .3.1.7 0 .3.1.5.1.7 0 .2-.1.3-.2.3s-.2-.1-.3-.3c-.1-.5-.3-.9-.7-1.2-.3-.2-.8-.4-1.5-.4-.9 0-1.4.1-1.6.2-.3.4-.4.7-.4 1.3zm11.8 5v3.1c.1.6.7 1 1.7 1.1.2 0 .3.1.3.2 0 .2-.1.3-.4.3h-.4l-1.2-.1h-1c-1.1 0-1.8 0-2.1.1-.2 0-.4.1-.5.1-.1 0-.2-.1-.2-.3 0-.1.1-.2.2-.2.6-.1 1.1-.3 1.3-.6.2-.3.3-.8.3-1.6v-1.6c0-.4-.1-.8-.4-1.2-.3-.5-.6-1.1-1-1.8l-1.3-2.4c-.5-1-1.1-1.5-1.8-1.6-.2 0-.3-.1-.3-.2 0-.2.1-.3.2-.3s.4 0 .7.1c.6.1 1.2.1 1.7.1s.9 0 1.4-.1c.4 0 .6-.1.7-.1.2 0 .4.1.4.2s-.1.2-.3.2c-.4.1-.7.3-.7.6 0 .2.2.8.6 1.6l.7 1.3c.3.5.4.9.5 1 .2.4.4.6.6.6.2 0 .4-.3.7-.9.1-.1.3-.5.6-1 .6-1.1.9-1.8.9-2.1 0-.2-.1-.5-.4-.7-.3-.2-.6-.3-1-.4-.2 0-.3-.1-.3-.2 0-.2.1-.3.2-.3h.4l.6.1h2.9c.2 0 .2.1.2.2s-.1.2-.3.3c-.4.1-.8.3-1 .6-.3.3-.6.8-1 1.6-.7 1.4-1.4 2.6-2 3.5-.1.2-.2.3-.2.4v.4zm20.4-12.4c1.5 0 2.8.3 4 1l.8.5c.2.1.3.1.4.1.2 0 .3-.1.4-.2l.3-.4c0-.1.1-.1.2-.1.3 0 .4.3.4.8v2l.1.9.1.5c0 .3.1.5.1.7 0 .3-.1.5-.3.5-.1 0-.2-.1-.3-.3-.1-.3-.3-.8-.7-1.4-.4-.6-.8-1.1-1.1-1.5-1.4-1.5-3-2.3-4.7-2.3-1.5 0-2.8.6-3.8 1.9-1 1.3-1.4 2.9-1.4 4.9 0 2.6.8 4.7 2.4 6.3 1.2 1.2 2.5 1.8 3.9 1.8.8 0 1.7-.2 2.6-.6.9-.4 1.6-.9 2.2-1.5l.8-.9c.1-.1.2-.2.3-.2.2 0 .2.1.2.3 0 .3-.3.9-1 1.6-1.7 1.9-3.8 2.9-6.2 2.9-2.4 0-4.3-.8-5.8-2.3-1.5-1.5-2.2-3.5-2.2-6 0-1.3.3-2.7.8-3.9.6-1.3 1.3-2.3 2.2-3.1 1.5-1.4 3.3-2 5.3-2zm14.9 5.1c1.8 0 3.2.5 4.3 1.6 1.1 1 1.6 2.4 1.6 4.1 0 1.8-.6 3.4-1.7 4.7-1.1 1.2-2.6 1.9-4.5 1.9-1.8 0-3.3-.5-4.4-1.6-1.1-1.1-1.7-2.5-1.7-4.3 0-.8.1-1.5.4-2.3.3-.8.7-1.4 1.1-1.9.6-.6 1.3-1.1 2.1-1.4.9-.7 1.8-.8 2.8-.8zm-.6.6c-1.1 0-2 .4-2.7 1.3-.6.8-1 2-1 3.5 0 1.8.4 3.2 1.2 4.4.8 1.1 1.9 1.7 3.2 1.7 1.2 0 2.1-.5 2.8-1.4.7-.9 1.1-2.2 1.1-3.7 0-.9-.2-1.8-.5-2.6-.3-.9-.8-1.5-1.3-2-.8-.8-1.8-1.2-2.8-1.2zm10.9 8.6c0 1.1.1 1.7.4 1.8.1.1.4.1.8.1 1.9 0 3.3-.6 4.1-1.7.2-.3.4-.5.5-.5.1 0 .2.1.2.3 0 .7-.2 1.4-.7 1.9-.4.5-1 .8-1.7.8h-.8c-.1 0-.4 0-1-.1h-2c-.7 0-1.4 0-2.1.1h-.5c-.2 0-.2-.1-.2-.2s.1-.2.2-.2c.4-.1.6-.3.8-.6.1-.3.2-.8.2-1.4v-7.1c0-.9-.4-1.4-1.1-1.5l-.5-.1c-.2 0-.3-.1-.3-.3 0-.2.1-.3.3-.3h.9c.3 0 .6.1.8.1.3 0 .7 0 1.3-.1.4 0 .9-.1 1.4-.1.3 0 .5.1.5.2s-.1.2-.4.2c-.6 0-.9.4-.9 1.2V45zm9.9 0c0 1.1.1 1.7.4 1.8.1.1.4.1.8.1 1.9 0 3.3-.6 4.1-1.7.2-.3.4-.5.5-.5.1 0 .2.1.2.3 0 .7-.2 1.4-.7 1.9-.4.5-1 .8-1.7.8h-.8c-.1 0-.4 0-1-.1h-2c-.7 0-1.4 0-2.1.1h-.5c-.2 0-.2-.1-.2-.2s.1-.2.2-.2c.4-.1.6-.3.8-.6.1-.3.2-.8.2-1.4v-7.1c0-.9-.4-1.4-1.1-1.5l-.5-.1c-.2 0-.3-.1-.3-.3 0-.2.1-.3.3-.3h.9c.3 0 .6.1.8.1.3 0 .7 0 1.3-.1.4 0 .9-.1 1.4-.1.3 0 .5.1.5.2s-.1.2-.4.2c-.6 0-.9.4-.9 1.2V45zm9.8-7v1.9c0 .5 0 .9.1 1 .1.1.3.2.6.2h1.4c.6 0 1-.3 1.3-.9l.2-.4c.1-.1.1-.2.3-.2.1 0 .2.1.2.2v.8c0 .2 0 .6.1 1.3 0 .4.1.8.1 1.1v.6l-.1.1c-.1 0-.2-.1-.3-.3-.1-.5-.2-.9-.5-1.1-.1-.1-.3-.2-.5-.3-.2 0-.6-.1-1.2-.1h-.6c-.3 0-.5 0-.6.1-.1.1-.2.2-.2.5s-.1.7-.1 1.3v.8c0 .8.1 1.4.2 1.7.1.3.2.4.3.5.1.1.3.1.6.1 2.3 0 3.8-.7 4.5-2.1 0-.1.1-.1.1-.1.1 0 .1 0 .2.1 0 0 .1.1.1.2 0 .6-.2 1.1-.5 1.6-.3.4-.6.8-.9 1-.4.2-.9.3-1.5.3-.4 0-.8 0-1.2-.1l-1-.1c-.4 0-.9-.1-1.5-.1-.4 0-1 0-1.9.1h-.5c-.1 0-.2-.1-.2-.2s.1-.2.2-.2c.3-.1.5-.3.7-.4.1-.1.2-.4.3-.7.1-.3.1-.7.1-1.2v-6.8c0-.6-.1-1.1-.3-1.3-.2-.2-.6-.4-1.3-.5-.2 0-.2-.1-.2-.3 0-.1.1-.2.3-.2h4.8c1.9 0 3 0 3.4-.1h.1c.2 0 .2.1.2.3 0 .1 0 .4.1.7 0 .5.1.9.1 1.1 0 .4-.1.7-.3.7-.1 0-.2-.1-.2-.4 0-.6-.2-1-.6-1.2-.4-.3-1.1-.4-2-.4h-1l-.6.1c-.3.1-.4.4-.4.9l-.4.4zm12.9-2.2c1 0 2.1.3 3.3.8.3.1.5.2.6.2.1 0 .2 0 .2-.1l.1-.1c.1-.1.1-.1.2-.1.2 0 .3.1.3.3v2.4c0 .2 0 .3.1.5v.2c0 .2-.1.3-.3.3-.1 0-.2-.1-.2-.4-.1-.7-.5-1.3-1.1-2-.9-.9-1.9-1.4-3.1-1.4-1.2 0-2.1.5-2.8 1.4-.7.9-1 2.1-1 3.6 0 1.6.4 3 1.1 4.1.7 1.1 1.6 1.7 2.7 1.7.3 0 .7-.1 1.2-.2s.8-.3 1.1-.5c.2-.1.4-.4.5-.6.1-.3.1-.7.1-1.3 0-.7-.1-1.2-.4-1.4-.2-.3-.7-.4-1.4-.4-.2 0-.3-.1-.3-.3 0-.2.1-.2.3-.2h.3c.6.1 1.2.1 1.9.1s1.3 0 1.6-.1c.3 0 .5-.1.6-.1.2 0 .3.1.3.2s-.1.2-.3.3c-.3.1-.6.2-.7.5-.1.3-.2.8-.2 1.4v1.2c0 .2 0 .3-.1.4-.1.1-.2.2-.4.2-.1 0-.6.2-1.4.6-1.4.6-2.5.9-3.6.9-1.5 0-2.8-.5-3.8-1.6-1-1-1.5-2.4-1.5-4 0-1.8.6-3.4 1.7-4.6 1.3-1.3 2.7-1.9 4.4-1.9zm10.2 2.2v1.9c0 .5 0 .9.1 1 .1.1.3.2.6.2h1.4c.6 0 1-.3 1.3-.9l.2-.4c.1-.1.1-.2.3-.2.1 0 .2.1.2.2v.8c0 .2 0 .6.1 1.3 0 .4.1.8.1 1.1v.6l-.1.1c-.1 0-.2-.1-.3-.3-.1-.5-.2-.9-.5-1.1-.1-.1-.3-.2-.5-.3-.2 0-.6-.1-1.2-.1h-.6c-.3 0-.5 0-.6.1-.1.1-.2.2-.2.5s-.1.7-.1 1.3v.8c0 .8.1 1.4.2 1.7.1.3.2.4.3.5.1.1.3.1.6.1 2.3 0 3.8-.7 4.5-2.1 0-.1.1-.1.1-.1.1 0 .1 0 .2.1 0 0 .1.1.1.2 0 .6-.2 1.1-.5 1.6-.3.4-.6.8-.9 1-.4.2-.9.3-1.5.3-.4 0-.8 0-1.2-.1l-1-.1c-.4 0-.9-.1-1.5-.1-.4 0-1 0-1.9.1h-.5c-.1 0-.2-.1-.2-.2s.1-.2.2-.2c.3-.1.5-.3.7-.4.1-.1.2-.4.3-.7.1-.3.1-.7.1-1.2v-6.8c0-.6-.1-1.1-.3-1.3-.2-.2-.6-.4-1.3-.5-.2 0-.2-.1-.2-.3 0-.1.1-.2.3-.2h4.8c1.9 0 3 0 3.4-.1h.1c.2 0 .2.1.2.3 0 .1 0 .4.1.7 0 .5.1.9.1 1.1 0 .4-.1.7-.3.7-.1 0-.2-.1-.2-.4 0-.6-.2-1-.6-1.2-.4-.3-1.1-.4-2-.4h-1l-.6.1c-.3.1-.4.4-.4.9l-.4.4zm10.5-2.2c.5 0 1.1.1 1.6.3l.6.2c.3.1.4.2.5.2.1 0 .2 0 .2-.1l.3-.2h.1c.1 0 .2.1.2.3v1l.1.8.1.8v.2c0 .2-.1.4-.2.4s-.2-.1-.2-.3c-.2-.8-.6-1.5-1.2-2.1-.7-.6-1.4-.9-2.1-.9-.5 0-1 .2-1.3.5-.4.3-.6.8-.6 1.2 0 .4.2.8.5 1.1.2.2.9.5 2 1 1.4.6 2.2 1.1 2.7 1.6.5.6.8 1.4.8 2.3 0 1-.4 1.9-1.1 2.6-.7.7-1.6 1.1-2.5 1.1-.4 0-1-.1-1.9-.4-.4-.1-.7-.2-.9-.3-.3-.1-.4-.1-.5-.1 0 0-.1-.2-.1-.4 0-.3-.1-.7-.3-1.2-.2-.8-.3-1.3-.3-1.5 0-.3.1-.4.3-.4.1 0 .1.1.2.2.3 1 .8 1.8 1.5 2.5s1.4 1 2.1 1c.6 0 1.1-.2 1.5-.7.5-.4.7-.9.7-1.5 0-.4-.1-.8-.4-1.1-.2-.3-.6-.6-1.2-.8l-1.3-.6c-1.2-.5-2.1-1.1-2.5-1.6-.4-.5-.7-1.1-.7-1.9 0-.9.3-1.7.9-2.4.7-.5 1.5-.8 2.4-.8z" class="st0"/>
  <path fill="#fff" d="M27 .3h-2.4c-1.5.1-3 .4-4.4.8l-.4.1c-.1 0-.1 0-.2.1h-.2C7.9 4.9 0 15.6.3 27.6.6 42 12.6 53.7 27 53.7h.6c7.1-.2 13.8-3.1 18.7-8.3 4.9-5.2 7.6-11.9 7.4-19 0-1.6-.2-3.3-.6-5-.1-.4-.2-.8-.3-1.1l-.1-.3c-.2-.7-.4-1.3-.6-1.8C49.9 11.6 44.9 6 38.6 3c-.1 0-.2-.1-.3-.1l-.7-.3C34.2 1.1 30.6.3 27 .3z"/>
  <path d="M27 54C12.4 54 .3 42.2 0 27.6c-.3-12.1 7.6-23 19.3-26.5l.7-.2c1.5-.4 3-.7 4.5-.8H27c3.7 0 7.3.8 10.8 2.3l.7.3c.1 0 .2.1.3.1 6.4 3.1 11.4 8.7 13.8 15.4.2.5.4 1.1.6 1.9l.1.2.3 1.2c.4 1.7.6 3.4.6 5.1.2 7.2-2.5 14-7.5 19.3-5 5.2-11.7 8.2-18.9 8.4-.4-.3-.6-.3-.8-.3zM27 .7h-2.4c-1.5.1-2.9.4-4.4.8l-.4.1c-.1 0-.1 0-.2.1h-.2C8.1 5.1.4 15.7.6 27.5 1 41.8 12.8 53.3 27 53.3h.6c7-.2 13.5-3.1 18.4-8.1 4.9-5.1 7.4-11.7 7.3-18.8 0-1.6-.2-3.3-.6-5-.1-.4-.2-.8-.3-1.1l-.1-.2c-.2-.7-.4-1.3-.5-1.8-2.3-6.5-7.2-11.9-13.4-15-.1 0-.2-.1-.3-.1l-.7-.3C34.1 1.4 30.6.7 27 .7z" class="st0"/>
  <path d="M38.9 20.5c-.1-.1-.3-.2-.4-.3-.1-.1-.3-.2-.4-.3-.6-.3-1.1-.6-1.7-.9-.2-.1-.3-.2-.5-.2-.2-.1-.3-.2-.5-.2-1.3-.7-2.7-1.2-4-1.8-1-.4-1.9-.7-2.8-1-.4-.1-.8-.2-1.1-.3.5.3.9.6 1.4.9 2.3 1.5 4.5 3.3 6.4 5.3.3.3.6.7.9 1l.6.6c.4.5.8.9 1.2 1.4.4.5.7.9 1 1.4.2.2.3.5.5.7.2.3.3.5.5.8.8 1.4 1.6 2.8 2.1 4.3.1-.3.3-.5.4-.8l.9.5c-.2.7-.4 1.3-.7 2l.1.4c.4 1.3.6 2.6.6 3.8.2 3.6-.9 6.7-3.1 9.1 3.6-2.4 6.4-5.7 8.3-9.5.8-3.3.3-6.5-1.6-9.4-1.9-3.1-4.9-5.5-8.1-7.5z" class="st0"/>
  <path d="M35.8 36.7v.9c.1 0 .1-.1.2-.1.2-.1.4-.3.7-.4.2-.1.4-.2.6-.4.8-.6 1.6-1.2 2.3-1.9l.4-.4c.1-.1.3-.2.4-.4.4-.5.8-1.1 1.2-1.6l-.1-.2c-.4-1.1-.9-2.2-1.5-3.2-.2-.3-.3-.6-.5-.8-.2-.3-.3-.5-.5-.8-.5-.8-1.1-1.6-1.7-2.4-2.8-3.7-6.6-6.9-10.7-9.2 3.5 3.7 6.2 8.5 7.8 13.5.9 2.5 1.3 5 1.4 7.4zm6 6.4c.2-.4.3-.8.4-1.1v-.1l.3-1.2v-.1c.1-.9.2-1.8.1-2.8 0-1.1-.2-2.2-.5-3.3-.5 1-1 1.9-1.6 2.7-.1.1-.2.2-.2.3-1.3 1.7-2.9 3.2-4.8 4.3l-.1.3-.6 2.1c-1.3 3.5-3.7 5.7-7 6.5 3.2-.1 6.2-.8 9.1-2.1.7-.4 1.4-.9 2-1.5 1.3-1.1 2.2-2.5 2.9-4 0 .1 0 0 0 0z" class="st0"/>
  <path d="M26 16c2.4 5.4 3.6 10.6 3.8 15.3.1 2-.1 3.8-.4 5.5 0 .1 0 .3-.1.4 0 .1 0 .3-.1.4l-.6 2.1c2.3-.1 4.5-.7 6.6-1.6v-2c0-.4-.1-.8-.1-1.2 0-.3-.1-.6-.1-.9-.1-.4-.2-.8-.2-1.3-.1-.3-.1-.6-.2-.9-.2-.7-.4-1.4-.6-2.2-.2-.7-.4-1.3-.7-2-1-2.6-2.3-5-3.8-7.3v-.1c-.3-.4-.6-.9-.9-1.3-.1-.1-.2-.3-.3-.4-.2-.3-.5-.6-.7-.9-.2-.2-.4-.5-.6-.7l-.6-.6c-.2-.1-.3-.2-.4-.3zm3.1 33.7c.2-.1.4-.2.7-.3l.6-.3c.2-.1.4-.2.6-.4.2-.1.4-.3.6-.5.2-.1.3-.3.5-.4.2-.2.4-.4.5-.6.1-.1.2-.3.4-.4l.6-.9c.1-.1.1-.2.2-.3.2-.4.5-.9.6-1.4 0-.1.1-.2.1-.3.2-.5.3-.9.4-1.4-2.4 1.3-5.1 2.1-8 2.2h-.8l-.1.2c-2 2.2-4.6 3.4-7.4 3.5h-.2c-.9 0-1.9-.1-2.8-.4 2.2 1.2 4.5 2.1 6.9 2.6.9.1 1.8.2 2.7.2.4 0 .8-.1 1.2-.1.3 0 .6-.1.9-.1.2 0 .4-.1.6-.1.3-.1.5-.1.7-.2.1-.5.3-.6.5-.6z" class="st0"/>
  <path d="M18.4 47.5c2.5-.1 4.8-1.1 6.7-3-3.2-.2-6.1-1.3-8.6-3l-.2.1c-.9.3-1.7.4-2.6.4h-.2c-2.5 0-4.9-1-6.7-2.7 1.4 2.3 3.1 4.3 5.1 6 1.9 1.5 4.2 2.2 6.5 2.2zM22 37.1c-.1.1-.2.3-.3.4-.1.2-.2.3-.4.5 2 1 4.3 1.6 6.6 1.6l.6-2.1c0-.1 0-.3.1-.4 0-.1.1-.3.1-.4.3-1.7.5-3.5.4-5.5-.2-4.5-1.4-9.4-3.6-14.6 1 10.6-1.1 16.7-3.3 20.1 0 .2-.1.3-.2.4z" class="st0"/>
  <path d="M40.3 7.2c-.2 0-.3-.1-.4-.2-.1-.1-.3-.1-.4-.2-1.4-.8-2.8-1.5-4.3-2.1-.1-.1-.3-.1-.4-.2-.2-.1-.3-.1-.5-.2-2.5-.8-5.1-1.2-7.8-1.1-1.4 0-2.7.2-4 .5-.1 0-.3 0-.4.1-.1 0-.3 0-.4.1-.3.1-.5.2-.8.2-.1 0-.2.1-.4.1-.1 0-.2.1-.4.1C10.1 7.2 3 16.6 3.2 27.5c.1 3.1.7 6 1.9 8.8.4.7.9 1.3 1.4 1.9.1.1.2.3.4.4.2.2.4.4.6.5.1.1.2.2.3.2.3.2.6.5 1 .6.1.1.2.1.3.1.3.1.5.3.8.4.1.1.3.1.4.2.2.1.5.2.7.2.2 0 .3.1.5.1.2.1.4.1.6.1.2 0 .4.1.5.1h1.1c.4 0 .8 0 1.2-.1.1 0 .2 0 .2-.1.3 0 .5-.1.8-.2-1.3-1-2.4-2.1-3.4-3.4 0-.1-.1-.1-.1-.2-2-2.8-3.3-6.2-3.4-9.9-.2-7.8 4.8-14.5 11.8-16.9l.5.9c-4.9 2.6-8.2 7.7-8 13.6 0 1.5.3 2.9.7 4.3.1.2.1.4.2.6.1.2.1.4.2.6.2.4.4.9.6 1.3l3.8-2.9c.4-.3.5-.5.5-1.3l-.1-5.4v-1.2l-.1-5.3 3-2.3.4-.3.3-.3.1-.1.2-.2.3-.2L27.7 9l4.9 1.3.4.1.4.1 2.6.7.4.1.4.1 2.3.6c.7.2.9.1 1.3-.2l.8-.4 1.3.6-4.2 3.2c-.3.2-.6.3-.9.4-.1 0-.3.1-.4.1h-.4c-.4 0-.7-.1-1-.2l-.7-.2-.4-.1-.3-.2-8.6-2.2-1.5 1.1-.3.2-.3.2-.4.3.2 10.4c0 .8 0 1.8-.9 2.5L15.7 33c1 1.5 2.2 2.7 3.6 3.8.2.1.4.3.6.4.2.1.4.3.6.4.1.1.2.1.3.2l.1-.1.1-.1c.1-.1.2-.2.2-.3l.1-.1s0-.1.1-.1c.1-.1.1-.2.2-.3.4-.6.9-1.3 1.3-2.1.1-.1.1-.3.2-.4.1-.2.2-.4.2-.6.1-.2.2-.4.2-.6.1-.1.1-.3.2-.4.1-.2.2-.5.3-.8 0-.1.1-.3.1-.4.1-.3.2-.6.2-.9 0-.1.1-.3.1-.4.1-.3.1-.6.2-1 0-.1.1-.3.1-.5.1-.3.1-.7.2-1 0-.2.1-.3.1-.5 0-.3.1-.7.1-1.1 0-.2 0-.4.1-.6 0-.4.1-.7.1-1.1v-4.7c0-.4 0-.8-.1-1.2 0-.3 0-.7-.1-1 0-.4-.1-.8-.1-1.2 0-.3-.1-.6-.1-.9V15l-.1-.5-.1-.4.4.1c2.7.6 6.4 1.8 10 3.5.2.1.3.2.5.2.2.1.3.2.5.2.6.3 1.2.6 1.8 1 .1.1.3.2.4.3.1.1.3.2.4.3 3.6 2.1 6.8 4.8 8.7 7.9 1.5 2.3 2.1 4.8 2 7.3.9-2.7 1.4-5.5 1.3-8.4-.1-8.1-4.2-15.1-10.4-19.3z" class="st0"/>
  <path fill="#f6b31f" d="M21.3 38c2 1 4.3 1.6 6.6 1.6h.7c2.3-.1 4.5-.7 6.6-1.6l.6-.3c.1 0 .1-.1.2-.1.2-.1.4-.3.7-.4.2-.1.4-.2.6-.4.8-.6 1.6-1.2 2.3-1.9l.4-.4.4-.4c.4-.5.8-1.1 1.2-1.6l.4-.7c.1-.3.3-.5.4-.8l.9.5c-.2.7-.4 1.3-.7 2l-.4 1c-.5 1-1 1.9-1.6 2.7-.1.1-.2.2-.2.3-1.3 1.7-2.9 3.2-4.8 4.3l-.8.5c-2.4 1.3-5.1 2.1-8 2.2h-1.7c-3.2-.2-6.1-1.3-8.6-3l-.7-.5c-1.3-1-2.4-2.1-3.4-3.4 0-.1-.1-.1-.1-.2-2-2.8-3.3-6.2-3.4-9.9-.2-7.8 4.8-14.5 11.8-16.9l.5.9c-4.9 2.6-8.2 7.7-8 13.6 0 1.5.3 2.9.7 4.3.1.2.1.4.2.6.1.2.1.4.2.6.2.4.4.9.6 1.3l3.8-2.9c.4-.3.5-.5.5-1.3l-.1-5.4v-1.2l-.1-5.3 3-2.3.4-.3.3-.3.1-.1.2-.2.3-.2L27.7 9l4.9 1.3.4.1.4.1 2.6.7.4.1.4.1 2.3.6c.7.2.9.1 1.3-.2l.8-.4 1.3.6-4.2 3.2c-.3.2-.6.3-.9.4-.1 0-.3.1-.4.1h-.4c-.4 0-.7-.1-1-.2l-.7-.2-.4-.1-.3-.2-8.6-2.2-1.5 1.1-.3.2-.3.2-.4.3.2 10.4c0 .8 0 1.8-.9 2.5L15.7 33c1 1.5 2.2 2.7 3.6 3.8.2.1.4.3.6.4.2.1.4.3.6.4l.8.4z"/>
</svg>