<svg xmlns="http://www.w3.org/2000/svg" id="Layer_1" viewBox="0 0 566 120">
  <path fill="#e31936" d="M0 0h178.6v114.8H0V0z"/>
  <path fill="#fff" d="M76 47.9h11.9V36.7c0-3.2-2.2-11.6-16.2-11.5-8.5-.6-15.9 5.9-16.4 14.4v36c0 6 4.3 14.1 16.3 14.2 12 0 15.9-6.8 16-11.9V67.1H76v8.5c0 2.1-1.1 5.1-4.3 4.8-3.1-.3-3.6-2.9-3.7-6.9V40.8c0-3.7 1.2-6.6 4-6.5s3.9 2.3 3.9 6.5v7.1zm48.7-.8v-10c0-5.5-2.1-11.8-14.6-11.8s-15.1 7-15.6 13.1c-.5 3.6-.3 7.3.6 10.9 1.1 2.5 2.8 4.8 5 6.5 3.7 3.4 9.3 7.9 11.5 10.5 1.4 2.3 2 5 1.8 7.7.1 1.9-.1 3.9-.9 5.7-.8.9-2.1 1.3-3.3 1.1-1.9 0-3.5-.5-3.5-4.7v-8.5H93.8v11.2c.2 3 1.4 5.9 3.5 8.1 3.3 2.5 7.3 3.6 11.4 3.2 4.7.5 9.3-1.1 12.8-4.3 2.2-2.3 3.5-5.8 3.5-13.1.7-6.1-1.7-12.2-6.5-16.2-5.3-5.1-10.5-8.5-11.7-11.5-.7-2.5-.9-5.2-.5-7.7-.1-1.5 1.1-2.7 2.6-2.8h.4c1.8 0 2.9.5 3.4 2.3.4 3.4.5 6.9.4 10.3h11.6zM165 26v63h-11.2v-7.7s-1.1 9.1-12.8 8.5c-11.7-.6-9.7-14.3-9.7-18.8V26h12.8v48.9c0 1.2.2 2.4.7 3.4.7 1 1.9 1.5 3.1 1.4 1.3.1 2.6-.5 3.5-1.6.7-1.3 1.1-2.8 1.1-4.3V26H165z"/>
  <path fill="#7d6a55" d="M229.8 10.5v7.1h-10v35.9h-9V17.7h-10v-7.1h29zM247 53.6V32.8c0-2.7-.5-4.8-3.1-4.8s-3.1 2.1-3.1 4.8v20.8h-8.5v-43h8.5v15.9c1.5-2.5 4.2-3.9 7.1-3.7 3.7-.4 7.1 2.3 7.5 6.1v24.7H247zm20.4-13.8c0 3.6 0 8.9 3.8 8.9 3 0 3.6-2.8 3.6-5.4h8.5c.1 2.9-1.1 5.8-3.1 7.8-2.5 2-5.6 3.1-8.8 2.9-10.8 0-12.3-6.6-12.3-16 0-8.3 1.2-15.3 12.3-15.3 11.1 0 12.8 7.4 12.2 17l-16.2.1zm7.7-4.7c0-2.9 0-7.1-3.9-7.1s-3.8 4.6-3.8 7.1h7.7zm24.6-3.1c0-11.4 0-22.2 14.8-22.2 9.1 0 12.8 5.1 12.5 14.3h-8.6c0-5.7-1-7.9-3.7-7.9-5.1 0-5.7 4.8-5.7 15.8s.7 15.8 5.7 15.8c4.3 0 4-5.4 4.3-8.8h8.9c0 11.5-4.6 15.2-12.8 15.2-15.4 0-15.4-10.9-15.4-22.2zm54.5 15.9c0 1.8 0 3.7.4 5.6h-7.8l-.3-4.2c-1.5 2.9-4.6 4.7-7.9 4.6-5.8 0-8-4.3-8-9.6 0-10 7.7-10.4 15.5-10.2V32c0-2.6-.3-4.3-3.4-4.3s-3.2 2.2-3.2 4.6h-8.3c-.3-2.8.9-5.6 3.1-7.4 2.4-1.5 5.1-2.1 7.9-2 10.6 0 12 4.6 12 10.1v14.9zm-15.5-3.8c0 2.2.3 4.8 3.1 4.8 5 0 4.3-6.6 4.3-9.9-4.4.2-7.4-.2-7.4 5.1zm29.1-33.6v43h-8.5v-43h8.5zm14.4 0v6.6h-8.5v-6.6h8.5zm0 43.1h-8.5V23.4h8.5v30.2zm19.6-37.9c-3.4 0-4.3 1.1-4.3 4.3v3.6h3.9v5.1h-3.9v25H389v-25h-3.8v-5.2h3.8c0-8.5-.8-13.2 9.5-13.2h3l.3 5.4zm1.4 22.4c0-8.3 1.2-15.3 12.3-15.3 11.1 0 12.2 7 12.2 15.3 0 9.4-1.4 16-12.2 16-10.8 0-12.3-6.6-12.3-16zm16.2-.5c0-6.3-.3-9.4-3.9-9.4s-3.9 3.1-3.9 9.4c0 9.1.8 11.1 3.9 11.1 3.1 0 3.9-1.9 3.9-11.1zm20.8-14.2v3.9c1.4-3 4.5-4.8 7.8-4.5v7.5c-7.4-.5-7.5 3.8-7.5 6.8v16.5H432V23.4h8.2zm19 3.1c1.5-2.5 4.2-3.9 7.1-3.7 3.7-.4 7.1 2.3 7.5 6.1v24.7h-8.5V32.8c0-2.7-.5-4.8-3.2-4.8s-3.1 2.1-3.1 4.8v20.8h-8.5V23.4h8.5l.2 3.1zm28.7-16v6.6h-8.5v-6.6h8.5zm0 43h-8.5V23.4h8.5v30.1zm28.4-5.6c0 1.8.3 3.7.4 5.6H509l-.4-4c-1.5 2.9-4.6 4.7-7.8 4.6-5.9 0-8-4.3-8-9.6 0-10 7.7-10.4 15.5-10.2V32c0-2.6-.3-4.3-3.4-4.3s-3.1 2.2-3.1 4.6h-8.2c-.3-2.8.9-5.6 3.1-7.4 2.4-1.5 5.1-2.1 7.9-2 10.6 0 12 4.6 12 10.1l-.3 14.9zm-15.5-3.8c0 2.2.4 4.8 3.1 4.8 4.9 0 4.3-6.6 4.3-9.9-4.3.2-7.4-.2-7.4 5.1zm-284.9 65.4c-11.1 0-13.2-6.5-12.8-14h9c0 4.3 0 7.6 5.1 7.6 2.3.2 4.4-1.6 4.5-3.9v-1c0-7.7-18.1-8.2-18.1-21 0-6.7 3.2-12.1 14.2-12.1 8.8 0 13.1 3.9 12.5 12.8h-8.7c0-3.2-.5-6.5-4.3-6.5-2.3-.2-4.4 1.5-4.6 3.8v.8c0 8.1 18.1 7.4 18.1 21 .1 11.2-8.1 12.5-14.9 12.5zm16.4-30.8h3.4V74l8.5-3.7v8.5h4.3V84h-4.3v16c0 2.3 0 3.7 2.7 3.7h1.5v5.1c-1.4.2-2.8.3-4.3.3-7.3 0-8.2-4.8-8.2-6.7V83.9h-3.4l-.2-5.2zm42.1 24.5c0 1.8.3 3.7.4 5.6H267l-.3-4c-1.5 2.9-4.5 4.6-7.8 4.6-5.8 0-8-4.3-8-9.6 0-10 7.7-10.4 15.5-10.2v-2.3c0-2.6-.4-4.3-3.4-4.3s-3.1 2.2-3.1 4.6h-8.4c-.3-2.9.9-5.7 3.2-7.5 2.4-1.5 5.1-2.1 7.9-2 10.7 0 12 4.6 12 10.1l-.2 15zm-15.5-3.8c0 2.2.3 4.8 3.1 4.8 4.9 0 4.3-6.6 4.3-9.9-4.3.2-7.4-.2-7.4 5.1zm17.8-20.7h3.4V74l8.5-3.7v8.5h4.3V84h-4.3v16c0 2.3 0 3.7 2.7 3.7h1.5v5.1c-1.4.2-2.8.3-4.3.3-7.3 0-8.3-4.8-8.3-6.7V83.9h-3.6v-5.2zm26.5 16.4c0 3.6 0 8.9 3.8 8.9 3 0 3.6-2.8 3.6-5.4h8.5c0 2.9-1.1 5.8-3.2 7.8-2.5 2-5.6 3.1-8.8 2.9-10.8 0-12.3-6.6-12.3-16 0-8.3 1.2-15.3 12.3-15.3 11.1 0 12.8 7.4 12.2 17l-16.1.1zm7.7-4.7c0-2.9 0-7.1-3.9-7.1s-3.8 4.6-3.8 7.1h7.7zm55.8-24.6v30.3c0 6.5-3.7 13.2-14.6 13.2-9.9 0-14.7-5.1-14.7-13.2V65.8h9v29.8c0 5.3 2.3 7.4 5.5 7.4 3.9 0 5.7-2.6 5.7-7.4V65.8h9.1zm13.7 16c1.5-2.5 4.2-3.9 7.1-3.7 3.7-.4 7.1 2.4 7.4 6.1v24.6h-8.5V88.1c0-2.7-.5-4.8-3.1-4.8-2.7 0-3.2 2.1-3.2 4.8v20.8h-8.5V78.7h8.5l.3 3.1zm29-16v6.6h-8.5v-6.6h8.5zm0 43h-8.5V78.7h8.5v30.1zm3.1-30.1h8.5l4.3 22.6 4.3-22.6h8.2l-8 30.2h-9.3l-8-30.2zm35.6 16.4c0 3.6 0 8.9 3.8 8.9 3 0 3.6-2.8 3.6-5.4h8.5c0 2.9-1.1 5.8-3.2 7.8-2.5 2.1-5.7 3.1-8.9 2.9-10.8 0-12.2-6.6-12.2-16 0-8.3 1.2-15.3 12.2-15.3 11.1 0 12.8 7.4 12.3 17l-16.1.1zm7.7-4.7c0-2.9 0-7.1-3.9-7.1s-3.8 4.6-3.8 7.1h7.7zm20.8-11.7v3.9c1.4-3 4.5-4.8 7.8-4.5v7.5c-7.4-.5-7.5 3.8-7.5 6.8v16.5h-8.5V78.7h8.2zm17.2 20.5c-.1 1.2 0 2.5.4 3.6.5.9 1.4 1.4 3.1 1.4 1.6.1 3-1.1 3.1-2.8v-.3c0-6.4-14.8-4.9-14.8-14.5 0-6.5 6.5-8.5 11.9-8.5s10.9 2.8 10.4 9.2h-8.2c0-2.1-.3-3.3-.9-3.9-.6-.5-1.4-.7-2.1-.6-1.9 0-2.8 1.2-2.8 3.2 0 4.8 14.8 4.6 14.8 14.2 0 5.2-4.3 9.1-11.3 9.1s-12.2-1.8-11.7-10.2l8.1.1zM521 65.8v6.6h-8.5v-6.6h8.5zm0 43h-8.5V78.7h8.5v30.1zm2.8-30.1h3.4V74l8.5-3.7v8.5h4.3V84h-4.3v16c0 2.3 0 3.7 2.7 3.7h1.5v5.1c-1.4.2-2.8.3-4.3.3-7.3 0-8.2-4.8-8.2-6.7V83.9H524l-.2-5.2zm25 30.2l-8.2-30.3h8.5l4.3 21.3 4.5-21.3h8.1L554.4 120h-8.8l3.2-11.1z"/>
</svg>