<svg xmlns="http://www.w3.org/2000/svg" viewBox="0 0 418.6 207">
  <path d="M0 71.5h112.9v63.9H0zM0 0h418.6v63.9H0zm0 143.1h418.6V207H0z" fill="#009ddc"/>
  <path d="M15.8 36V11.1h7v24c0 8.9 3.3 12.5 10.9 12.5 7.2 0 10.4-4.2 10.4-11.7V11.1h6.5v24.2c0 11.1-5.5 18.1-17.2 18.1-12.1.1-17.6-6.8-17.6-17.4zm50.6-24.9h7l18.4 25.2c2.4 3.3 4.2 6.9 4.3 6.9h.2S96 40 96 36.8V11.1h6.3v41.6H96L76.4 26c-2-2.8-3.7-6.2-3.7-6.2h-.1s.2 2.8.2 5.4v27.5h-6.5V11.1zm52.3 0h7v41.6h-7V11.1zm18.6 0h7.4l10.5 27.3c1.2 3.1 2.4 7 2.4 7.1h.2c0-.1 1.2-4 2.4-7.1l10.1-27.3h6.7l-16 41.6h-6.8l-16.9-41.6zm51.2 0h25.4v5.7h-18.5v11.4h16.5v5.5h-16.5V47h18.9v5.7h-25.8V11.1zm40 0h13c9.7 0 15.3 4 15.3 11.5 0 7.1-5.2 10.3-11.4 10.9v.1c.9.6 2.4 2.2 4.9 5.7l9.9 13.4h-8l-8.4-11.9c-4.1-5.7-5.1-6.2-7.6-6.2h-.7v18.1h-7V11.1zm12.8 18.3c5.8 0 8.3-2.2 8.3-6.5 0-4.4-2.7-6.4-8.7-6.4h-5.5v12.9h5.9zm27 19.9l3.1-4.9c1.1.8 4.2 3.4 9.7 3.4 4.9 0 8.2-2.2 8.2-5.8 0-4.4-4-5.6-10-8.4-5.3-2.4-9.9-5.4-9.9-12 0-7.3 6.2-11.2 13.4-11.2 6.8 0 10.3 2.2 12.1 3.4l-3 4.9c-1.5-1-4.7-2.7-8.8-2.7-4 0-6.9 1.7-6.9 5.3 0 4 3.5 5.2 8 7.2C290 31 296 34 296 41.6c0 7.3-5.8 11.8-14.8 11.8-6.9.1-11.2-2.5-12.9-4.1zm41.4-38.2h7v41.6h-7V11.1zm31.4 5.8h-12.7v-5.8h32.5v5.8h-12.7v35.8h-7V16.9zm42 20l-14.6-25.8h7.6l10.7 19.8h.2l10.5-19.8h6.8L390 36.9v15.8h-6.9V36.9zM13.4 175c0-11.6 7.9-21.5 22-21.5 5.6 0 9.3 1.2 12.5 3.3l-3.3 5.2c-2.4-1.6-5.4-2.7-9.4-2.7-9.5 0-14.4 6.6-14.4 15.5 0 9.2 4.7 16 14.6 16 4.7 0 7.9-1.6 10.3-3.3l2.9 4.9c-2.3 1.9-7.1 4.2-13.4 4.2-14.1 0-21.8-10-21.8-21.6zm58.5-20.7h6.8l16.9 41.6h-7.3l-3.6-9.1H65.4l-3.4 9.1h-6.9l16.8-41.6zm10.7 26.8l-4.9-12.7c-1.4-3.6-2.6-7.5-2.6-7.5h-.2s-1.3 4.1-2.6 7.5l-4.9 12.7h15.2zm23.2-26.8h7.1v35.9h17.6v5.7h-24.7v-41.6zm36.5 0h7v41.6h-7v-41.6zm22.5 0h25v5.7h-18v11.8h15.9v5.6h-15.9v18.5h-7v-41.6zm34 20.9c0-11.4 8-21.7 21.9-21.7 13.9 0 21.9 10 21.9 21.4 0 11.4-7.9 21.7-21.8 21.7s-22-10-22-21.4zm36.5 0c0-8.6-4.8-16-14.4-16-9.6 0-14.7 7.4-14.7 15.8 0 8.6 4.9 15.9 14.5 15.9s14.6-7.2 14.6-15.7zm17.7-20.9h13.1c9.7 0 15.3 4 15.3 11.5 0 7.1-5.2 10.3-11.4 10.9v.2c.9.6 2.4 2.2 5 5.7l9.9 13.4h-8l-8.4-11.9c-4.1-5.7-5.1-6.2-7.6-6.2h-.9V196h-7v-41.7zm12.9 18.3c5.8 0 8.3-2.2 8.3-6.5 0-4.4-2.8-6.4-8.8-6.4H260v12.9h5.9zm29.1-18.3h7l18.4 25.2c2.3 3.3 4.2 6.9 4.3 6.9h.2s-.3-3.2-.3-6.4v-25.7h6.3v41.6h-6.3L305 169.2c-1.9-2.9-3.7-6.2-3.7-6.2h-.1s.2 2.8.2 5.3v27.5H295v-41.5zm51.2 0h7v41.6h-7v-41.6zm34.4 0h6.8l16.9 41.6H397l-3.6-9.1h-19.3l-3.4 9.1h-6.9l16.8-41.6zm10.8 26.8l-4.9-12.7c-1.4-3.6-2.6-7.5-2.6-7.5h-.2s-1.3 4.1-2.6 7.5l-4.9 12.7h15.2zm-378-77.5c0-11.4 8-21.7 21.9-21.7 13.9 0 21.9 10 21.9 21.4 0 11.4-7.9 21.7-21.8 21.7-13.8.1-22-9.9-22-21.4zm36.5 0c0-8.6-4.8-16-14.4-16-9.6 0-14.6 7.4-14.6 15.8 0 8.6 4.9 16 14.5 16s14.5-7.3 14.5-15.8zm19.7-20.8h25v5.7h-18v11.8h15.9v5.6H76.6v18.5h-7V82.8z" fill="#fff"/>
</svg>