<?xml version="1.0" encoding="utf-8"?>
<!-- Generator: Adobe Illustrator 22.0.1, SVG Export Plug-In . SVG Version: 6.00 Build 0)  -->
<svg version="1.1" id="Layer_1" xmlns="http://www.w3.org/2000/svg" xmlns:xlink="http://www.w3.org/1999/xlink" x="0px" y="0px"
	 viewBox="0 0 18.5 20.5" style="enable-background:new 0 0 18.5 20.5;" xml:space="preserve">
<style type="text/css">
	.st0{fill:#231F20;}
</style>
<g id="connection-indicator" transform="translate(6024.5 242)">
	<g id="today" transform="translate(25.5)">
		<path id="Path_45" class="st0" d="M-6033.6-239.9h-1v-2.1h-2.1v2.1h-8.2v-2.1h-2.1v2.1h-1c-1.1,0-2.1,0.9-2.1,2.1v14.4
			c0,1.1,0.9,2.1,2.1,2.1h14.4c1.1,0,2.1-0.9,2.1-2.1v-14.4C-6031.5-239-6032.4-239.9-6033.6-239.9z M-6033.6-223.5h-14.4v-11.3
			h14.4V-223.5z"/>
		<rect id="Rectangle_23" x="-6045.9" y="-227.2" class="st0" width="1.8" height="1.8"/>
		<rect id="Rectangle_24" x="-6045.9" y="-230" class="st0" width="1.8" height="1.8"/>
		<rect id="Rectangle_25" x="-6045.9" y="-232.8" class="st0" width="1.8" height="1.8"/>
		<rect id="Rectangle_26" x="-6043.1" y="-227.2" class="st0" width="1.8" height="1.8"/>
		<rect id="Rectangle_27" x="-6043.1" y="-230" class="st0" width="1.8" height="1.8"/>
		<rect id="Rectangle_28" x="-6043.1" y="-232.8" class="st0" width="1.8" height="1.8"/>
		<rect id="Rectangle_29" x="-6040.4" y="-227.2" class="st0" width="1.8" height="1.8"/>
		<rect id="Rectangle_30" x="-6040.4" y="-230" class="st0" width="1.8" height="1.8"/>
		<rect id="Rectangle_31" x="-6040.4" y="-232.8" class="st0" width="1.8" height="1.8"/>
		<rect id="Rectangle_32" x="-6037.6" y="-227.2" class="st0" width="1.8" height="1.8"/>
		<rect id="Rectangle_33" x="-6037.6" y="-230" class="st0" width="1.8" height="1.8"/>
		<rect id="Rectangle_34" x="-6037.6" y="-232.8" class="st0" width="1.8" height="1.8"/>
	</g>
</g>
</svg>
