<?xml version="1.0" encoding="utf-8"?>
<!-- Generator: Adobe Illustrator 22.0.1, SVG Export Plug-In . SVG Version: 6.00 Build 0)  -->
<svg version="1.1" id="Layer_1" xmlns="http://www.w3.org/2000/svg" xmlns:xlink="http://www.w3.org/1999/xlink" x="0px" y="0px"
	 viewBox="0 0 18.4 52.7" style="enable-background:new 0 0 18.4 52.7;" xml:space="preserve">
<style type="text/css">
	.st0{fill:#263238;}
</style>
<g id="Group_690" transform="translate(1990 -1645)">
	<path id="Path_100" class="st0" d="M-1979.9,1688.6c-1-1.1-2-2.4-3-3.8l-3,2.3c1.1,1.5,2.1,2.8,3.3,4L-1979.9,1688.6z
		 M-1979.7,1656.5l-2.8-2.6c-1.2,1.3-2.2,2.7-3.3,4.1l3,2.1C-1980.8,1657.9-1979.7,1656.5-1979.7,1656.5L-1979.7,1656.5z
		 M-1984.5,1682.1c-0.5-1.5-0.9-3.1-1.3-4.8l-3.6,0.9c0.4,1.6,0.9,3.4,1.4,5L-1984.5,1682.1z M-1984.5,1662.5l-3.6-1
		c-0.5,1.6-0.9,3.3-1.3,5l3.6,0.8C-1985.4,1665.6-1985,1664-1984.5,1662.5L-1984.5,1662.5z M-1986.2,1674.8v-4.8l-3.8-0.1v5.1
		L-1986.2,1674.8z"/>
	<path id="Path_101" class="st0" d="M-1972.3,1697.7l-0.5-8.5l-3.1,0.2l0.2,4.5l-4.5-0.6l-0.4,3.1L-1972.3,1697.7z"/>
	<path id="Path_102" class="st0" d="M-1971.6,1649.6c0-2.6-2.1-4.6-4.7-4.6c-2.5,0-4.5,2.1-4.6,4.6c0,2.5,1.9,4.6,4.5,4.6
		c0.1,0,0.1,0,0.2,0C-1973.7,1654.2-1971.7,1652.1-1971.6,1649.6z M-1978.5,1649.6c0-1.3,1.1-2.4,2.4-2.4s2.4,1.1,2.4,2.4
		c0,1.3-1.1,2.4-2.4,2.4C-1977.4,1651.9-1978.5,1650.9-1978.5,1649.6z"/>
</g>
</svg>
