<?xml version="1.0" encoding="utf-8"?>
<!-- Generator: Adobe Illustrator 22.0.1, SVG Export Plug-In . SVG Version: 6.00 Build 0)  -->
<svg version="1.1" id="Layer_1" xmlns="http://www.w3.org/2000/svg" xmlns:xlink="http://www.w3.org/1999/xlink" x="0px" y="0px"
	 viewBox="0 0 88 21.1" style="enable-background:new 0 0 88 21.1;" xml:space="preserve">
<style type="text/css">
	.st0{fill:#FF6F00;}
</style>
<path id="Path_17" class="st0" d="M80.4,15.8c-0.9-0.8-1.8-1.5-2.8-2.3l1.7-2.3c1.1,0.9,2.1,1.6,3,2.5L80.4,15.8z M8.7,14.9l-2-2.1
	c1-0.9,2-1.7,3.1-2.5l1.6,2.3C9.7,14,8.7,14.9,8.7,14.9z M74.5,11.4c-1-0.7-2.1-1.3-3.2-1.9L72.6,7c1.1,0.7,2.3,1.3,3.3,2L74.5,11.4
	z M14.6,10.7l-1.4-2.5c1.1-0.7,2.3-1.2,3.4-1.9l1.2,2.6C16.8,9.4,15.7,10,14.6,10.7L14.6,10.7z M68.1,7.9l-3.4-1.4l1-2.7
	c1.2,0.5,2.4,0.9,3.6,1.5L68.1,7.9z M21.2,7.4l-1-2.7c1.2-0.5,2.4-0.9,3.6-1.4L24.7,6C23.5,6.5,22.3,6.9,21.2,7.4z M61.1,5.3
	c-1.1-0.4-2.4-0.7-3.6-0.9l0.7-2.8c1.2,0.3,2.6,0.7,3.8,1L61.1,5.3z M28.2,5l-0.8-2.8c1.2-0.4,2.5-0.7,3.8-0.9l0.6,2.8
	C30.6,4.4,29.4,4.6,28.2,5z M53.9,3.6c-1.2-0.2-2.5-0.4-3.7-0.5l0.3-2.8c1.3,0.1,2.6,0.3,3.9,0.5L53.9,3.6z M35.4,3.5L35,0.7
	c1.2-0.2,2.6-0.3,3.9-0.5L39.1,3C37.9,3.1,36.7,3.3,35.4,3.5L35.4,3.5z M46.5,2.8h-3.6L42.8,0h3.9L46.5,2.8z"/>
<path id="Path_18" class="st0" d="M88,20.6l-6.5-0.4l0.2-2.4l3.4,0.2l-0.5-3.4l2.4-0.3L88,20.6z"/>
<path id="Path_19" class="st0" d="M3.5,21.1C1.5,21,0,19.4,0,17.5c0-1.9,1.6-3.4,3.5-3.5c1.9,0,3.5,1.5,3.5,3.4c0,0,0,0.1,0,0.1
	C6.9,19.5,5.4,21,3.5,21.1z M3.5,15.8c-1,0-1.8,0.8-1.8,1.8c0,1,0.8,1.8,1.8,1.8s1.8-0.8,1.8-1.8l0,0C5.2,16.7,4.4,15.9,3.5,15.8
	L3.5,15.8z"/>
</svg>
