<?xml version="1.0" encoding="utf-8"?>
<!-- Generator: Adobe Illustrator 22.0.1, SVG Export Plug-In . SVG Version: 6.00 Build 0)  -->
<svg version="1.1" id="Layer_1" xmlns="http://www.w3.org/2000/svg" xmlns:xlink="http://www.w3.org/1999/xlink" x="0px" y="0px"
	 viewBox="0 0 24.8 8.6" style="enable-background:new 0 0 24.8 8.6;" xml:space="preserve">
<path id="Union_1" class="st0" d="M0,6.5c0-1.2,1-2.2,2.2-2.2c0,0,0,0,0,0c1.2,0,2.2,0.9,2.2,2.1c0,0,0,0.1,0,0.1
	c0,1.2-1,2.2-2.2,2.2C1,8.6,0,7.7,0,6.5C0,6.5,0,6.5,0,6.5z M1.1,6.5c0,0.6,0.5,1.1,1.1,1.1s1.1-0.5,1.1-1.1c0-0.6-0.5-1.1-1.1-1.1
	C1.6,5.4,1.1,5.9,1.1,6.5C1.1,6.5,1.1,6.5,1.1,6.5z M20.8,8.1l0.1-1.5l2.1,0.1l-0.3-2.1l1.5-0.2l0.6,3.9L20.8,8.1z M4.2,3.5
	C4.8,3,5.5,2.5,6.2,2l1,1.4C6.1,4.3,5.4,4.8,5.4,4.8L4.2,3.5z M18.8,3.3l1.1-1.4c0.7,0.5,1.3,1,1.9,1.5l-1.2,1.3
	C20,4.3,19.4,3.8,18.8,3.3L18.8,3.3z M15.2,2l0.4-1.7c0.8,0.2,1.6,0.4,2.4,0.6l-0.5,1.6C16.8,2.3,16,2.2,15.2,2z M7.8,0.9
	c0.8-0.2,1.5-0.4,2.4-0.6L10.5,2C9.7,2.2,8.9,2.3,8.2,2.6L7.8,0.9z M11.8,1.8L11.8,0h2.4L14,1.8L11.8,1.8z"/>
</svg>
