<?xml version="1.0" encoding="utf-8"?>
<!-- Generator: Adobe Illustrator 22.0.1, SVG Export Plug-In . SVG Version: 6.00 Build 0)  -->
<svg version="1.1" id="question_icon" xmlns="http://www.w3.org/2000/svg" xmlns:xlink="http://www.w3.org/1999/xlink" x="0px"
	 y="0px" viewBox="0 0 18 21" style="enable-background:new 0 0 18 21;" xml:space="preserve">
<style type="text/css">
	.st0{fill:#FF6F00;}
	.st1{fill:#FFFFFF;}
</style>
<path id="bubble" class="st0" d="M16,0H2C0.9,0,0,0.9,0,2v14c0,1.1,0.9,2,2,2h4l3,3l3-3h4c1.1,0,2-0.9,2-2V2C18,0.9,17.1,0,16,0z"/>
<path id="question_mark" class="st1" d="M8,12.7h2.4V15H8L8,12.7z M5,6.9C5,5.6,5.6,4.4,6.6,3.6C7.3,3.2,8.1,3,9,3
	c1.1,0,2.1,0.3,3,0.9c0.8,0.6,1.3,1.6,1.2,2.6c0,0.6-0.2,1.2-0.5,1.8c-0.3,0.4-0.7,0.8-1.2,1.1l-0.6,0.4c-0.3,0.2-0.5,0.5-0.6,0.8
	c-0.1,0.3-0.1,0.6-0.1,1H8c0-0.6,0.1-1.3,0.3-1.9c0.3-0.5,0.6-0.9,1.1-1.2L9.9,8c0.2-0.1,0.3-0.3,0.5-0.5c0.2-0.3,0.3-0.6,0.3-1
	c0-0.4-0.1-0.8-0.4-1.1C10,5.1,9.6,4.9,9.1,5c-0.5,0-1,0.2-1.3,0.6C7.5,6,7.3,6.4,7.3,6.9L5,6.9z"/>
</svg>
