<?xml version="1.0" encoding="utf-8"?>
<!-- Generator: Adobe Illustrator 22.0.1, SVG Export Plug-In . SVG Version: 6.00 Build 0)  -->
<svg version="1.1" id="Layer_1" xmlns="http://www.w3.org/2000/svg" xmlns:xlink="http://www.w3.org/1999/xlink" x="0px" y="0px"
	 viewBox="0 0 18 18" style="enable-background:new 0 0 18 18;" xml:space="preserve">
<path id="Path_86" d="M12.9,11.3H12L11.7,11c1.1-1.2,1.7-2.7,1.6-4.3c0-3.7-3-6.7-6.7-6.7C3,0,0,3,0,6.7c0,3.7,3,6.7,6.7,6.7
	c1.6,0,3.1-0.6,4.3-1.6l0.3,0.3v0.8l5.1,5.1l1.5-1.5L12.9,11.3z M6.7,11.3c-2.6,0-4.6-2.1-4.6-4.6s2.1-4.6,4.6-4.6s4.6,2.1,4.6,4.6
	l0,0C11.3,9.2,9.3,11.3,6.7,11.3C6.7,11.3,6.7,11.3,6.7,11.3z"/>
</svg>
