<?xml version="1.0" encoding="utf-8"?>
<!-- Generator: Adobe Illustrator 22.0.1, SVG Export Plug-In . SVG Version: 6.00 Build 0)  -->
<svg version="1.1" id="assist-logo" xmlns="http://www.w3.org/2000/svg" xmlns:xlink="http://www.w3.org/1999/xlink" x="0px"
	 y="0px" viewBox="0 0 120.7 54.4" style="enable-background:new 0 0 120.7 54.4;" xml:space="preserve">
<style type="text/css">
	.st0{fill:#ED1C24;}
</style>
<g id="type">
	<path id="letter-t" d="M116.5,37.2v6.6c0,1.5,0,2.2,0.3,2.8c0.5,1.3,2.7,1,3.7,1v6.2h-2.8c-1.4,0-7.6,0.4-9.5-1.7
		c-0.6-0.8-1.3-1.8-1.3-4.4V37.3h-3v-5h3v-6.6h9.7v6.6h4v4.9H116.5z"/>
	<path id="letter-s1_1_" d="M92,54.2c-5.7,0.2-10.1-1.9-10.8-7.2h8.3c0.1,1.5,0.8,2.2,1.9,2.5c1.4,0.3,3.5-0.1,3.6-1.6
		c0-1-1.2-1.7-2.3-2L88,45c-3.4-0.8-6.4-3.1-6.3-6.5c0.2-5,5.8-7.1,10.7-7c7.1,0.1,9.9,3,10.3,6.9h-7.8c-0.1-1.4-1.1-2-2.2-2.2
		C91.5,36,90,36.5,90,37.4c-0.1,1.5,1.4,1.7,2.7,2l4.9,1.1c3.1,0.7,5.7,2.5,6,5.7C104.2,52.1,98.1,54,92,54.2z"/>
	<polygon id="letter-i" points="71.7,53.9 71.7,32.3 80,32.3 80,53.9 	"/>
	<path id="letter-s2" d="M58.6,54.2c-5.7,0.2-10.1-1.9-10.8-7.2H56c0.1,1.5,0.8,2.2,1.9,2.5c1.4,0.3,3.5-0.1,3.6-1.6
		c0-1-1.2-1.7-2.3-2l-4.6-1c-3.4-0.8-6.4-3.1-6.3-6.5c0.2-5,5.8-7.1,10.7-7c7.1,0.1,9.9,3,10.3,6.9h-7.8c-0.1-1.4-1.1-2-2.2-2.2
		c-1.2-0.2-2.7,0.3-2.7,1.3c-0.1,1.5,1.4,1.7,2.7,2l4.9,1.1c3.1,0.7,5.7,2.5,6,5.7C70.8,52.1,64.7,54,58.6,54.2z"/>
	<path id="letter-s1" d="M35.6,54.2c-5.7,0.2-10.1-1.9-10.8-7.2h8.3c0.1,1.5,0.8,2.2,1.9,2.5c1.4,0.3,3.5-0.1,3.6-1.6
		c0-1-1.2-1.7-2.3-2l-4.6-1c-3.4-0.8-6.4-3.1-6.3-6.5c0.2-5,5.8-7.1,10.7-7c7.1,0.1,9.9,3,10.3,6.9h-7.8c-0.1-1.4-1.1-2-2.2-2.2
		c-1.2-0.2-2.7,0.3-2.7,1.3c-0.1,1.5,1.4,1.7,2.7,2l4.9,1.1c3.1,0.7,5.7,2.5,6,5.7C47.8,52.1,41.7,54,35.6,54.2z"/>
	<path id="letter-a" d="M15.8,53.9l-0.4-2.2c-1.4,1.5-4.3,2.7-7.8,2.8c-4.5,0.1-7.7-2.5-7.6-6.3c0.1-6.2,5.5-6.7,11.4-7.3
		c5.5-0.5,4-4,0.3-3.7c-0.7,0-2.4,0.6-2.2,2.1H1.4l0.1-0.9C2,33.2,7.8,32,12.9,32c8.6,0.1,10.4,3,10.4,7.6l0,11.9
		c0,0.5,0.1,0.9,0.4,1.3c0.2,0.3,0.5,0.5,0.8,0.6v0.4H15.8z M14.8,44.7c0,0-1,0.5-2.8,0.7c-1.3,0.1-3.3,0.7-3.2,2.5
		c0.1,2.3,3.3,1.9,4.2,1.4c2.1-0.9,2.4-3.5,2-4.8L14.8,44.7z"/>
</g>
<g id="mark">
	<polygon id="arrow-head" class="st0" points="104.2,21.7 97.4,21.3 97.6,18.8 101.2,19 100.7,15.4 103.2,15.1 	"/>
	<path id="arc" class="st0" d="M96.2,16.7c-0.9-0.8-1.9-1.6-3-2.4l1.8-2.4c1.2,0.9,2.2,1.7,3.2,2.6L96.2,16.7z M20.6,15.7l-2.1-2.2
		c0,0,1.2-1.1,3.3-2.6l1.7,2.4C21.7,14.8,20.6,15.7,20.6,15.7z M90,12c-1.1-0.7-2.2-1.4-3.4-2l1.4-2.6c1.2,0.7,2.4,1.4,3.5,2.1
		L90,12z M26.9,11.3l-1.5-2.6c1.2-0.7,2.4-1.3,3.6-2l1.3,2.7C29.1,10,27.9,10.6,26.9,11.3z M83.2,8.3c-1.2-0.5-2.4-1-3.6-1.5L80.7,4
		c1.3,0.5,2.5,1,3.8,1.6L83.2,8.3z M33.8,7.8L32.7,5c1.3-0.5,2.5-1,3.8-1.5l1,2.8C36.2,6.8,35,7.3,33.8,7.8z M75.9,5.6
		c-1.2-0.4-2.5-0.7-3.8-1l0.7-2.9c1.3,0.3,2.7,0.7,4,1.1L75.9,5.6z M41.2,5.3l-0.8-2.9c1.3-0.4,2.6-0.7,4-1L45,4.3
		C43.7,4.6,42.4,4.9,41.2,5.3z M68.3,3.8c-1.3-0.2-2.6-0.4-3.9-0.5l0.3-3c1.4,0.1,2.7,0.3,4.1,0.5L68.3,3.8z M48.8,3.7l-0.4-3
		c1.3-0.2,2.7-0.3,4.1-0.5l0.2,3C51.4,3.3,50.1,3.5,48.8,3.7z M60.5,3c-0.7,0-1.5,0-2.2,0l-0.6,0c-0.3,0-0.7,0-1,0l-0.1-3
		c0.4,0,0.7,0,1.1,0l0.7,0c0.8,0,1.6,0,2.3,0L60.5,3z"/>
	<path id="circle" class="st0" d="M15.1,22.2c-2,0-3.7-1.6-3.7-3.7c0-2,1.6-3.7,3.7-3.7c2,0,3.7,1.6,3.7,3.7
		C18.7,20.6,17.1,22.2,15.1,22.2z M15.1,16.7c-1,0-1.9,0.8-1.9,1.9c0,1,0.8,1.9,1.9,1.9c1,0,1.9-0.8,1.9-1.9
		C16.9,17.5,16.1,16.7,15.1,16.7z"/>
</g>
</svg>
