<svg xmlns="http://www.w3.org/2000/svg" viewBox="6050 242 18.487 20.541">
  <g id="connection-indicator" transform="translate(6024.5 242)">
    <g id="today" transform="translate(25.5)">
      <path id="Path_45" data-name="Path 45" d="M41.933,2.054H40.906V0H38.852V2.054H30.635V0H28.581V2.054H27.554A2.06,2.06,0,0,0,25.5,4.108V18.487a2.06,2.06,0,0,0,2.054,2.054H41.933a2.06,2.06,0,0,0,2.054-2.054V4.108A2.06,2.06,0,0,0,41.933,2.054Zm0,16.433H27.554V7.189H41.933Z" transform="translate(-25.5)"/>
      <rect id="Rectangle_23" data-name="Rectangle 23" width="1.844" height="1.844" transform="translate(4.108 14.774)"/>
      <rect id="Rectangle_24" data-name="Rectangle 24" width="1.844" height="1.844" transform="translate(4.108 12.009)"/>
      <rect id="Rectangle_25" data-name="Rectangle 25" width="1.844" height="1.844" transform="translate(4.108 9.243)"/>
      <rect id="Rectangle_26" data-name="Rectangle 26" width="1.844" height="1.844" transform="translate(6.874 14.774)"/>
      <rect id="Rectangle_27" data-name="Rectangle 27" width="1.844" height="1.844" transform="translate(6.874 12.009)"/>
      <rect id="Rectangle_28" data-name="Rectangle 28" width="1.844" height="1.844" transform="translate(6.874 9.243)"/>
      <rect id="Rectangle_29" data-name="Rectangle 29" width="1.844" height="1.844" transform="translate(9.639 14.774)"/>
      <rect id="Rectangle_30" data-name="Rectangle 30" width="1.844" height="1.844" transform="translate(9.639 12.009)"/>
      <rect id="Rectangle_31" data-name="Rectangle 31" width="1.844" height="1.844" transform="translate(9.639 9.243)"/>
      <rect id="Rectangle_32" data-name="Rectangle 32" width="1.844" height="1.844" transform="translate(12.405 14.774)"/>
      <rect id="Rectangle_33" data-name="Rectangle 33" width="1.844" height="1.844" transform="translate(12.405 12.009)"/>
      <rect id="Rectangle_34" data-name="Rectangle 34" width="1.844" height="1.844" transform="translate(12.405 9.243)"/>
    </g>
  </g>
</svg>
