<?xml version="1.0" encoding="utf-8"?>
<!-- Generator: Adobe Illustrator 22.0.1, SVG Export Plug-In . SVG Version: 6.00 Build 0)  -->
<svg version="1.1" id="Goudy_Old_Style_font" xmlns="http://www.w3.org/2000/svg" xmlns:xlink="http://www.w3.org/1999/xlink"
	 x="0px" y="0px" viewBox="0 0 283.3 54" style="enable-background:new 0 0 283.3 54;" xml:space="preserve">
<style type="text/css">
	.st0{fill:#223266;}
	.st1{fill:#FFFFFF;}
	.st2{fill:#F6B31F;}
</style>
<g>
	<path class="st0" d="M74.1,6c1.5,0,2.8,0.3,4,1l0.8,0.5c0.2,0.1,0.3,0.1,0.4,0.1c0.2,0,0.3-0.1,0.4-0.2L79.9,7
		c0-0.1,0.1-0.1,0.2-0.1c0.3,0,0.4,0.3,0.4,0.8l0,0.9v1.1l0.1,0.9l0.1,0.5c0,0.3,0.1,0.5,0.1,0.7c0,0.3-0.1,0.5-0.3,0.5
		c-0.1,0-0.2-0.1-0.3-0.3c-0.1-0.3-0.3-0.8-0.7-1.4c-0.4-0.6-0.8-1.1-1.1-1.5c-1.4-1.5-3-2.3-4.7-2.3c-1.5,0-2.8,0.6-3.8,1.9
		c-1,1.3-1.4,2.9-1.4,4.9c0,2.6,0.8,4.7,2.4,6.3c1.2,1.2,2.5,1.8,3.9,1.8c0.8,0,1.7-0.2,2.6-0.6c0.9-0.4,1.6-0.9,2.2-1.5l0.8-0.9
		c0.1-0.1,0.2-0.2,0.3-0.2c0.2,0,0.2,0.1,0.2,0.3c0,0.3-0.3,0.9-1,1.6c-1.7,1.9-3.8,2.9-6.2,2.9c-2.4,0-4.3-0.8-5.8-2.3
		c-1.5-1.5-2.2-3.5-2.2-6c0-1.3,0.3-2.7,0.8-3.9C67,9.8,67.8,8.8,68.7,8C70.2,6.6,72,6,74.1,6z"/>
	<path class="st0" d="M87.8,12.3l3.9,8.9c0.2,0.5,0.4,0.8,0.7,1c0.3,0.2,0.6,0.4,1,0.4c0.1,0,0.2,0.1,0.2,0.2c0,0.2-0.1,0.2-0.2,0.2
		c-0.1,0-0.2,0-0.3-0.1c-0.4-0.1-1.1-0.1-2.1-0.1c-1,0-1.6,0-2,0.1c-0.1,0-0.2,0-0.2,0c-0.2,0-0.2-0.1-0.2-0.2
		c0-0.1,0.1-0.1,0.2-0.2c0.3-0.1,0.5-0.2,0.7-0.4c0.2-0.2,0.3-0.4,0.3-0.6c0-0.3-0.2-1-0.7-2.1c-0.2-0.3-0.3-0.5-0.5-0.6
		c-0.2,0-0.8-0.1-2-0.1h-1.2L84.4,19c-0.2,0.1-0.4,0.5-0.7,1.1l-0.3,0.7c-0.1,0.2-0.1,0.4-0.1,0.6c0,0.7,0.5,1.1,1.5,1.2
		c0.2,0,0.3,0.1,0.3,0.3c0,0.2-0.1,0.2-0.3,0.2c-0.1,0-0.2,0-0.4-0.1c-0.4-0.1-0.7-0.1-1-0.1c-0.3,0-0.7,0-1.3,0.1
		c-0.4,0-0.7,0.1-0.8,0.1C81.1,23,81,23,81,22.8c0-0.1,0.1-0.2,0.2-0.3c0.3-0.1,0.6-0.3,0.7-0.5c0.2-0.3,0.5-0.8,0.8-1.6l2.3-5.4
		c0.2-0.4,0.3-0.7,0.4-0.9l0.8-1.6l0.4-0.8v0c0.2-0.4,0.3-0.6,0.4-0.6c0.1,0,0.2,0.2,0.5,0.7L87.8,12.3z M88.1,17.6L87,15
		c-0.3-0.6-0.5-0.9-0.6-0.9c-0.1,0-0.2,0.2-0.4,0.6L85.9,15l-1,2.3l-0.1,0.2c0,0.1-0.1,0.2-0.1,0.2c0,0.2,0.2,0.3,0.6,0.3h2.5
		c0.2,0,0.3-0.1,0.3-0.2C88.2,17.8,88.2,17.8,88.1,17.6L88.1,17.6z"/>
	<path class="st0" d="M97.9,20.3c0,1.1,0.1,1.7,0.4,1.8c0.1,0.1,0.4,0.1,0.8,0.1c1.9,0,3.3-0.6,4.1-1.7c0.2-0.3,0.4-0.5,0.5-0.5
		c0.1,0,0.2,0.1,0.2,0.3c0,0.7-0.2,1.4-0.7,1.9c-0.4,0.5-1,0.8-1.7,0.8c-0.1,0-0.4,0-0.8,0c-0.1,0-0.4,0-1-0.1l-0.9,0
		c-0.3,0-0.7,0-1.1,0c-0.7,0-1.4,0-2.1,0.1c-0.2,0-0.4,0-0.5,0c-0.2,0-0.2-0.1-0.2-0.2c0-0.1,0.1-0.2,0.2-0.2
		c0.4-0.1,0.6-0.3,0.8-0.6c0.1-0.3,0.2-0.8,0.2-1.4v-7.1c0-0.9-0.4-1.4-1.1-1.5l-0.5-0.1c-0.2,0-0.3-0.1-0.3-0.3
		c0-0.2,0.1-0.3,0.3-0.3c0.1,0,0.1,0,0.2,0c0.1,0,0.2,0,0.3,0l0.4,0c0.3,0,0.6,0.1,0.8,0.1c0.3,0,0.7,0,1.3-0.1
		c0.4,0,0.9-0.1,1.4-0.1c0.3,0,0.5,0.1,0.5,0.2c0,0.1-0.1,0.2-0.4,0.2c-0.6,0-0.9,0.4-0.9,1.2V20.3z"/>
	<path class="st0" d="M107.8,20.3l0.1,0.9c0.1,0.4,0.2,0.8,0.5,1c0.3,0.2,0.6,0.3,1,0.3c0.3,0,0.4,0.1,0.4,0.3
		c0,0.2-0.2,0.3-0.6,0.3c-0.2,0-0.4,0-0.7,0c-0.7-0.1-1.3-0.1-1.8-0.1c-0.6,0-1,0-1.4,0.1c-0.3,0.1-0.5,0.1-0.6,0.1
		c-0.1,0-0.2-0.1-0.2-0.2l0-0.1l0.2-0.2c0.4-0.1,0.7-0.3,0.8-0.5c0.1-0.2,0.2-0.6,0.2-1.1l0-0.8v-6.8c0-0.5-0.1-0.9-0.3-1.1
		c-0.2-0.2-0.5-0.4-1-0.4c-0.3,0-0.5-0.1-0.6-0.1c-0.1,0-0.1-0.1-0.1-0.2c0-0.2,0.1-0.2,0.2-0.2c0.1,0,0.3,0,0.5,0.1
		c0.2,0,0.5,0.1,1,0.1c0.3,0,0.7,0,1.2-0.1l0.6,0c0.6,0,1-0.1,1.4-0.1c0.2,0,0.3,0.1,0.3,0.2c0,0.1,0,0.2,0,0.2c0,0-0.1,0.1-0.2,0.1
		c-0.4,0.1-0.7,0.2-0.8,0.3c-0.1,0.2-0.2,0.5-0.2,1V20.3z"/>
	<path class="st0" d="M114.2,15.6c0,0.3,0,0.5,0.1,0.6c0.1,0.1,0.2,0.2,0.5,0.2l0.3,0l0.9,0c0.4,0,0.7-0.1,1-0.3
		c0.2-0.2,0.4-0.5,0.6-1.1c0.1-0.1,0.1-0.2,0.2-0.2c0.2,0,0.3,0.1,0.3,0.2c0,0,0,0.1,0,0.2c0,0.1,0,0.2,0,0.3c0,0.3,0,0.7,0.1,1.2
		l0.1,1.6c0,0.2,0,0.3,0,0.4c0,0.1-0.1,0.2-0.2,0.2c-0.1,0-0.2-0.1-0.2-0.2c-0.1-0.6-0.3-1-0.6-1.2c-0.3-0.2-0.7-0.3-1.4-0.3
		c-0.9,0-1.3,0.1-1.5,0.2c-0.1,0.1-0.2,0.5-0.2,1.2l0,0.7v1c0,0.9,0.1,1.5,0.4,1.9c0.2,0.3,0.6,0.5,1.3,0.5c0.2,0,0.3,0.1,0.3,0.2
		c0,0.2-0.1,0.2-0.2,0.2c-0.1,0-0.3,0-0.5,0c-0.2,0-0.6,0-1.2,0h-0.9c-0.4,0-0.8,0-1.1,0.1c-0.4,0.1-0.7,0.1-0.8,0.1
		c-0.2,0-0.3-0.1-0.3-0.2c0-0.1,0.1-0.2,0.2-0.2c0.3-0.1,0.6-0.3,0.7-0.6c0.1-0.3,0.2-0.8,0.2-1.4v-7c0-0.7-0.1-1.2-0.4-1.4
		c-0.3-0.2-0.7-0.4-1.2-0.4c-0.1,0-0.2-0.1-0.2-0.2c0-0.2,0.1-0.3,0.3-0.3c0.1,0,0.2,0,0.4,0c0.3,0,0.7,0,1.1,0l1.5,0l2.2,0
		c0.8,0,1.6,0,2.4-0.1c0.3,0,0.5,0,0.7,0c0.1,0,0.2,0.1,0.2,0.4c0,0.4,0,0.6,0.1,0.6l0.1,0.7c0,0.1,0,0.2,0,0.3
		c0,0.5-0.1,0.7-0.3,0.7c-0.1,0-0.2-0.1-0.2-0.2v-0.3c0-0.1,0-0.2,0-0.3c-0.2-0.7-1-1.1-2.3-1.1l-1.1,0l-0.3,0
		c-0.3,0-0.6,0.1-0.7,0.2c-0.1,0.1-0.2,0.3-0.2,0.6V15.6z"/>
	<path class="st0" d="M126.5,11.1c1.8,0,3.2,0.5,4.3,1.6c1.1,1,1.6,2.4,1.6,4.1c0,1.8-0.6,3.4-1.7,4.7c-1.1,1.2-2.6,1.9-4.5,1.9
		c-1.8,0-3.3-0.5-4.4-1.6c-1.1-1.1-1.7-2.5-1.7-4.3c0-0.8,0.1-1.5,0.4-2.3c0.3-0.8,0.7-1.4,1.1-1.9c0.6-0.6,1.3-1.1,2.1-1.4
		C124.6,11.2,125.5,11.1,126.5,11.1z M125.9,11.7c-1.1,0-2,0.4-2.7,1.3c-0.6,0.8-1,2-1,3.5c0,1.8,0.4,3.2,1.2,4.4
		c0.8,1.1,1.9,1.7,3.2,1.7c1.2,0,2.1-0.5,2.8-1.4c0.7-0.9,1.1-2.2,1.1-3.7c0-0.9-0.2-1.8-0.5-2.6c-0.3-0.9-0.8-1.5-1.3-2
		C127.9,12.1,127,11.7,125.9,11.7z"/>
	<path class="st0" d="M136.9,19.7c0,1.1,0.1,1.8,0.3,2.2c0.2,0.4,0.6,0.6,1.2,0.7c0.2,0,0.4,0.1,0.4,0.3s-0.1,0.2-0.3,0.2
		c-0.1,0-0.2,0-0.4,0c-0.5,0-1-0.1-1.4-0.1c-0.4,0-0.7,0-1,0l-0.7,0.1l-0.6,0c-0.2,0-0.3,0-0.3,0c-0.2,0-0.3-0.1-0.3-0.2
		c0-0.1,0.1-0.2,0.2-0.2c0.4-0.1,0.7-0.3,0.8-0.5c0.1-0.2,0.2-0.5,0.2-0.9v-0.8l0-0.3v-6.2c0-0.7-0.1-1.1-0.3-1.4
		c-0.3-0.4-0.7-0.6-1.4-0.7c-0.2,0-0.4-0.1-0.4-0.3s0.1-0.2,0.2-0.2c0.1,0,0.2,0,0.3,0c0.4,0,0.9,0.1,1.4,0.1c0.6,0,1.3,0,2.1-0.1
		c1-0.1,1.6-0.1,2-0.1c1.1,0,2,0.3,2.7,0.9c0.7,0.6,1.1,1.3,1.1,2.2c0,0.6-0.2,1.1-0.5,1.5c-0.3,0.5-0.8,0.8-1.3,1.1
		c-0.1,0-0.2,0.1-0.2,0.2c0,0.1,0,0.1,0.1,0.2c0.1,0.1,0.1,0.2,0.2,0.4l0.8,1.3l0.9,1.6c0.3,0.5,0.6,0.9,0.8,1.1
		c0.2,0.2,0.5,0.3,0.8,0.3c0.1,0,0.3,0,0.4,0c0.1,0,0.1,0,0.2,0c0.1,0,0.2,0.1,0.2,0.2c0,0.2-0.2,0.4-0.7,0.6
		c-0.5,0.2-0.9,0.3-1.2,0.3c-0.6,0-1.1-0.3-1.6-0.9c-0.5-0.6-1.1-1.7-1.9-3.3c-0.3-0.6-0.6-1-0.8-1.2c-0.2-0.2-0.5-0.3-1-0.3h-0.5
		l-0.4,0.1c-0.1,0-0.1,0.2-0.1,0.4V19.7z M136.9,13v3c0,0.4,0,0.6,0.1,0.7c0.1,0.1,0.3,0.1,0.7,0.1c1,0,1.6,0,1.9-0.1
		c0.2,0,0.5-0.2,0.7-0.3c0.4-0.4,0.6-0.9,0.6-1.6c0-0.9-0.3-1.6-0.8-2.1c-0.6-0.6-1.3-0.8-2.1-0.8c-0.4,0-0.7,0.1-0.8,0.2
		C136.9,12.3,136.9,12.5,136.9,13z"/>
	<path class="st0" d="M150.5,13.2l4.5,5.1l0.3,0.3c0.4,0.4,0.6,0.6,0.8,0.6c0.1,0,0.2-0.2,0.2-0.5c0.1-1.3,0.1-2.5,0.1-3.6
		c0-1.3-0.1-2.2-0.4-2.7c-0.3-0.5-0.8-0.7-1.6-0.8c-0.2,0-0.3-0.1-0.3-0.2c0-0.2,0.1-0.2,0.2-0.2c0.2,0,0.5,0,1,0.1
		c0.3,0,0.5,0.1,0.7,0.1c0.4,0,1-0.1,1.9-0.2c0.1,0,0.2,0,0.2,0c0.2,0,0.3,0.1,0.3,0.2c0,0.1-0.1,0.2-0.3,0.3
		c-0.7,0.1-1.1,0.8-1.1,2v0.4l-0.1,5.3l0,0.7l0,0.9l0,0.6l0,1.1c0,0.2-0.1,0.2-0.2,0.2c-0.1,0-0.2-0.1-0.3-0.2l-7.8-8.6
		c-0.1-0.1-0.2-0.2-0.3-0.2c-0.1,0-0.2,0.1-0.2,0.4l0,0.2v3.3c0,1.8,0.1,3,0.3,3.6c0.2,0.6,0.7,1,1.7,1.1c0.2,0,0.3,0.1,0.3,0.2
		c0,0.2-0.1,0.3-0.3,0.3c-0.1,0-0.2,0-0.3,0c-0.5-0.1-1-0.1-1.6-0.1c-0.6,0-1.1,0-1.5,0.1c-0.2,0-0.3,0-0.4,0
		c-0.2,0-0.2-0.1-0.2-0.2c0-0.1,0.1-0.2,0.2-0.2c0.4-0.1,0.7-0.4,0.9-0.7c0.2-0.4,0.3-0.9,0.3-1.6l0.1-2v-3.7c0-1.8-0.6-2.7-1.9-2.8
		c-0.2,0-0.3-0.1-0.3-0.2c0-0.2,0.1-0.2,0.3-0.2l0.6,0l0.4,0c0.4,0,0.9,0,1.4-0.1c0.2,0,0.3,0,0.5,0c0.2,0,0.3,0,0.4,0.1
		c0.1,0.1,0.3,0.3,0.6,0.7l0.6,0.7C150.3,13,150.4,13.2,150.5,13.2z"/>
	<path class="st0" d="M163.3,20.3l0.1,0.9c0.1,0.4,0.2,0.8,0.5,1c0.3,0.2,0.6,0.3,1,0.3c0.3,0,0.4,0.1,0.4,0.3
		c0,0.2-0.2,0.3-0.6,0.3c-0.2,0-0.4,0-0.7,0c-0.7-0.1-1.3-0.1-1.8-0.1c-0.6,0-1,0-1.4,0.1c-0.3,0.1-0.5,0.1-0.6,0.1
		s-0.2-0.1-0.2-0.2l0-0.1l0.2-0.2c0.4-0.1,0.7-0.3,0.8-0.5c0.1-0.2,0.2-0.6,0.2-1.1l0-0.8v-6.8c0-0.5-0.1-0.9-0.3-1.1
		c-0.2-0.2-0.5-0.4-1-0.4c-0.3,0-0.5-0.1-0.6-0.1c-0.1,0-0.1-0.1-0.1-0.2c0-0.2,0.1-0.2,0.2-0.2c0.1,0,0.3,0,0.5,0.1
		c0.2,0,0.5,0.1,1,0.1c0.3,0,0.7,0,1.2-0.1l0.6,0c0.6,0,1-0.1,1.4-0.1c0.2,0,0.3,0.1,0.3,0.2c0,0.1,0,0.2,0,0.2c0,0-0.1,0.1-0.2,0.1
		c-0.4,0.1-0.7,0.2-0.8,0.3c-0.1,0.2-0.2,0.5-0.2,1V20.3z"/>
	<path class="st0" d="M173,12.3l3.9,8.9c0.2,0.5,0.4,0.8,0.7,1c0.3,0.2,0.6,0.4,1,0.4c0.1,0,0.2,0.1,0.2,0.2c0,0.2-0.1,0.2-0.2,0.2
		c-0.1,0-0.2,0-0.3-0.1c-0.4-0.1-1.1-0.1-2.1-0.1c-1,0-1.6,0-2,0.1c-0.1,0-0.2,0-0.2,0c-0.2,0-0.2-0.1-0.2-0.2
		c0-0.1,0.1-0.1,0.2-0.2c0.3-0.1,0.5-0.2,0.7-0.4c0.2-0.2,0.3-0.4,0.3-0.6c0-0.3-0.2-1-0.7-2.1c-0.2-0.3-0.3-0.5-0.5-0.6
		c-0.2,0-0.8-0.1-2-0.1h-1.2l-0.8,0.1c-0.2,0.1-0.4,0.5-0.7,1.1l-0.3,0.7c-0.1,0.2-0.1,0.4-0.1,0.6c0,0.7,0.5,1.1,1.5,1.2
		c0.2,0,0.3,0.1,0.3,0.3c0,0.2-0.1,0.2-0.3,0.2c-0.1,0-0.2,0-0.4-0.1c-0.4-0.1-0.7-0.1-1-0.1c-0.3,0-0.7,0-1.3,0.1
		c-0.4,0-0.7,0.1-0.8,0.1c-0.2,0-0.2-0.1-0.2-0.2c0-0.1,0.1-0.2,0.2-0.3c0.3-0.1,0.6-0.3,0.7-0.5c0.2-0.3,0.5-0.8,0.8-1.6l2.3-5.4
		c0.2-0.4,0.3-0.7,0.4-0.9l0.8-1.6l0.4-0.8v0c0.2-0.4,0.3-0.6,0.4-0.6c0.1,0,0.2,0.2,0.5,0.7L173,12.3z M173.3,17.6l-1.1-2.6
		c-0.3-0.6-0.5-0.9-0.6-0.9c-0.1,0-0.2,0.2-0.4,0.6l-0.2,0.4l-1,2.3l-0.1,0.2c0,0.1-0.1,0.2-0.1,0.2c0,0.2,0.2,0.3,0.6,0.3h2.5
		c0.2,0,0.3-0.1,0.3-0.2C173.4,17.8,173.4,17.8,173.3,17.6L173.3,17.6z"/>
</g>
<g>
	<path class="st0" d="M74.1,30.7c1.5,0,2.8,0.3,4,1l0.8,0.5c0.2,0.1,0.3,0.1,0.4,0.1c0.2,0,0.3-0.1,0.4-0.2l0.3-0.4
		c0-0.1,0.1-0.1,0.2-0.1c0.3,0,0.4,0.3,0.4,0.8l0,0.9v1.1l0.1,0.9l0.1,0.5c0,0.3,0.1,0.5,0.1,0.7c0,0.3-0.1,0.5-0.3,0.5
		c-0.1,0-0.2-0.1-0.3-0.3c-0.1-0.3-0.3-0.8-0.7-1.4c-0.4-0.6-0.8-1.1-1.1-1.5c-1.4-1.5-3-2.3-4.7-2.3c-1.5,0-2.8,0.6-3.8,1.9
		c-1,1.3-1.4,2.9-1.4,4.9c0,2.6,0.8,4.7,2.4,6.3c1.2,1.2,2.5,1.8,3.9,1.8c0.8,0,1.7-0.2,2.6-0.6c0.9-0.4,1.6-0.9,2.2-1.5l0.8-0.9
		c0.1-0.1,0.2-0.2,0.3-0.2c0.2,0,0.2,0.1,0.2,0.3c0,0.3-0.3,0.9-1,1.6c-1.7,1.9-3.8,2.9-6.2,2.9c-2.4,0-4.3-0.8-5.8-2.3
		c-1.5-1.5-2.2-3.5-2.2-6c0-1.3,0.3-2.7,0.8-3.9c0.6-1.3,1.3-2.3,2.2-3.1C70.2,31.3,72,30.7,74.1,30.7z"/>
	<path class="st0" d="M88.9,35.8c1.8,0,3.2,0.5,4.3,1.6c1.1,1,1.6,2.4,1.6,4.1c0,1.8-0.6,3.4-1.7,4.7c-1.1,1.2-2.6,1.9-4.5,1.9
		c-1.8,0-3.3-0.5-4.4-1.6c-1.1-1.1-1.7-2.5-1.7-4.3c0-0.8,0.1-1.5,0.4-2.3c0.3-0.8,0.7-1.4,1.1-1.9c0.6-0.6,1.3-1.1,2.1-1.4
		C87.1,35.9,88,35.8,88.9,35.8z M88.3,36.4c-1.1,0-2,0.4-2.7,1.3c-0.6,0.8-1,2-1,3.5c0,1.8,0.4,3.2,1.2,4.4c0.8,1.1,1.9,1.7,3.2,1.7
		c1.2,0,2.1-0.5,2.8-1.4c0.7-0.9,1.1-2.2,1.1-3.7c0-0.9-0.2-1.8-0.5-2.6c-0.3-0.9-0.8-1.5-1.3-2C90.3,36.8,89.4,36.4,88.3,36.4z"/>
	<path class="st0" d="M99.1,36.5l3.5,7.7c0.2,0.3,0.3,0.5,0.4,0.5c0.1,0,0.2-0.1,0.3-0.3l3.2-6.9c0.3-0.6,0.5-1.1,0.7-1.2
		c0.1-0.2,0.3-0.2,0.5-0.2c0.1,0,0.2,0,0.4,0c0.2,0,0.3,0,0.5,0c0.2,0,0.5,0,0.9-0.1c0.2,0,0.3,0,0.4,0c0.2,0,0.3,0.1,0.3,0.2
		c0,0.1-0.1,0.2-0.2,0.2c-0.5,0-0.9,0.2-1.1,0.5c-0.2,0.3-0.3,0.9-0.3,1.6l0,0.6l0.2,5.3l0,0.3c0,0.8,0.1,1.4,0.4,1.7
		c0.3,0.4,0.7,0.6,1.4,0.7c0.2,0,0.2,0.1,0.2,0.3c0,0.2-0.2,0.2-0.6,0.2c-0.1,0-0.3,0-0.5,0c-0.7-0.1-1.2-0.1-1.5-0.1
		c-0.6,0-1.1,0-1.5,0.1c-0.4,0.1-0.6,0.1-0.8,0.1c-0.1,0-0.2-0.1-0.2-0.2c0-0.1,0.1-0.2,0.2-0.2c0.3-0.1,0.6-0.2,0.7-0.4
		c0.1-0.2,0.2-0.5,0.2-0.9c0-0.2,0-0.3,0-0.4l-0.2-5.7c0-0.2,0-0.2-0.1-0.2c-0.1,0-0.2,0.2-0.4,0.5l-3.2,6.8l-0.1,0.3
		c-0.2,0.4-0.3,0.5-0.4,0.5c-0.1,0-0.3-0.3-0.6-0.9l-0.4-0.9l-2.7-6.1l-0.1-0.1c0,0-0.1-0.1-0.1-0.1c-0.1,0-0.1,0.1-0.1,0.4l0,0.3
		l-0.1,4.3l0,0.3l0.1,0.8c0.2,0.8,0.6,1.4,1.3,1.5c0.3,0.1,0.4,0.2,0.4,0.3c0,0.2-0.1,0.2-0.3,0.2c-0.2,0-0.3,0-0.5,0l-0.6-0.1
		c-0.2,0-0.4,0-0.7,0c-0.5,0-0.9,0-1.2,0.1c-0.2,0-0.3,0.1-0.4,0.1c-0.2,0-0.3-0.1-0.3-0.2c0-0.1,0.1-0.2,0.2-0.2
		c0.4-0.1,0.8-0.4,1-0.8c0.2-0.4,0.3-0.9,0.3-1.6l0.2-5.6l0-0.6c0-0.7-0.2-1.2-0.5-1.6c-0.3-0.4-0.8-0.6-1.4-0.6
		c-0.2,0-0.3-0.1-0.3-0.2c0-0.2,0.1-0.3,0.4-0.3c0.1,0,0.1,0,0.2,0l0.5,0c0.1,0,0.2,0,0.4,0c0.3,0,0.5,0,0.8-0.1
		c0.4,0,0.6-0.1,0.8-0.1C98.7,36,98.9,36.2,99.1,36.5z"/>
	<path class="st0" d="M115,36.5l3.5,7.7c0.2,0.3,0.3,0.5,0.4,0.5c0.1,0,0.2-0.1,0.3-0.3l3.2-6.9c0.3-0.6,0.5-1.1,0.7-1.2
		c0.1-0.2,0.3-0.2,0.5-0.2c0.1,0,0.2,0,0.4,0c0.2,0,0.3,0,0.5,0c0.2,0,0.5,0,0.9-0.1c0.2,0,0.3,0,0.4,0c0.2,0,0.3,0.1,0.3,0.2
		c0,0.1-0.1,0.2-0.2,0.2c-0.5,0-0.9,0.2-1.1,0.5c-0.2,0.3-0.3,0.9-0.3,1.6l0,0.6l0.2,5.3l0,0.3c0,0.8,0.1,1.4,0.4,1.7
		c0.3,0.4,0.7,0.6,1.4,0.7c0.2,0,0.2,0.1,0.2,0.3c0,0.2-0.2,0.2-0.6,0.2c-0.1,0-0.3,0-0.5,0c-0.7-0.1-1.2-0.1-1.5-0.1
		c-0.6,0-1.1,0-1.5,0.1c-0.4,0.1-0.6,0.1-0.8,0.1c-0.1,0-0.2-0.1-0.2-0.2c0-0.1,0.1-0.2,0.2-0.2c0.3-0.1,0.6-0.2,0.7-0.4
		c0.1-0.2,0.2-0.5,0.2-0.9c0-0.2,0-0.3,0-0.4l-0.2-5.7c0-0.2,0-0.2-0.1-0.2c-0.1,0-0.2,0.2-0.4,0.5l-3.2,6.8l-0.1,0.3
		c-0.2,0.4-0.3,0.5-0.4,0.5c-0.1,0-0.3-0.3-0.6-0.9l-0.4-0.9l-2.7-6.1l-0.1-0.1c0,0-0.1-0.1-0.1-0.1c-0.1,0-0.1,0.1-0.1,0.4l0,0.3
		l-0.1,4.3l0,0.3l0.1,0.8c0.2,0.8,0.6,1.4,1.3,1.5c0.3,0.1,0.4,0.2,0.4,0.3c0,0.2-0.1,0.2-0.3,0.2c-0.2,0-0.3,0-0.5,0l-0.6-0.1
		c-0.2,0-0.4,0-0.7,0c-0.5,0-0.9,0-1.2,0.1c-0.2,0-0.3,0.1-0.4,0.1c-0.2,0-0.3-0.1-0.3-0.2c0-0.1,0.1-0.2,0.2-0.2
		c0.4-0.1,0.8-0.4,1-0.8c0.2-0.4,0.3-0.9,0.3-1.6l0.2-5.6l0-0.6c0-0.7-0.2-1.2-0.5-1.6c-0.3-0.4-0.8-0.6-1.4-0.6
		c-0.2,0-0.3-0.1-0.3-0.2c0-0.2,0.1-0.3,0.4-0.3c0.1,0,0.1,0,0.2,0l0.5,0c0.1,0,0.2,0,0.4,0c0.3,0,0.5,0,0.8-0.1
		c0.4,0,0.6-0.1,0.8-0.1C114.6,36,114.9,36.2,115,36.5z"/>
	<path class="st0" d="M136.7,35.9c0,0,0.1,0,0.2,0c0.1,0,0.3,0,0.7,0.1l0.9,0l0.8,0c0.3,0,0.5,0,0.8-0.1c0.1,0,0.2,0,0.3,0
		c0.2,0,0.2,0.1,0.2,0.2c0,0.1-0.1,0.2-0.2,0.2l-0.3,0.1c-0.4,0.1-0.7,0.5-0.7,1.4l0,0.7l0,1.1c0,1.6-0.1,3-0.2,4
		c-0.2,1-0.4,1.8-0.8,2.3c-0.9,1.3-2.3,2-4.4,2c-1.5,0-2.6-0.3-3.4-0.8c-1.1-0.7-1.6-2.2-1.6-4.3l0.1-3.3l0-1.6c0-0.4,0-0.7-0.1-0.8
		c-0.1-0.2-0.2-0.3-0.5-0.4c-0.3-0.1-0.6-0.2-0.9-0.3c-0.2,0-0.3-0.1-0.3-0.3c0-0.2,0.1-0.2,0.3-0.2c0.1,0,0.2,0,0.3,0
		c0.7,0.1,1.3,0.1,1.7,0.1c0.6,0,1.2,0,1.9-0.1c0.3,0,0.5,0,0.6,0c0.3,0,0.4,0.1,0.4,0.3c0,0.1,0,0.2-0.1,0.2c0,0-0.2,0.1-0.3,0.1
		c-0.3,0.1-0.6,0.2-0.7,0.4c-0.1,0.2-0.2,0.6-0.2,1.1l-0.1,2.2l0,1.5c0,1.4,0.1,2.4,0.2,2.9c0.1,0.6,0.4,1.1,0.9,1.5
		c0.7,0.6,1.6,0.9,2.6,0.9c1.1,0,2-0.3,2.7-1c0.5-0.4,0.8-1.1,1-1.9c0.2-0.8,0.3-2.1,0.3-3.6v-0.7l0-1.8c0-0.5-0.2-0.9-0.5-1.2
		c-0.3-0.3-0.7-0.4-1.2-0.4c-0.2,0-0.3-0.1-0.3-0.3C136.5,36,136.6,35.9,136.7,35.9z"/>
	<path class="st0" d="M146.7,37.9l4.5,5.1l0.3,0.3c0.4,0.4,0.6,0.6,0.8,0.6c0.1,0,0.2-0.2,0.2-0.5c0.1-1.3,0.1-2.5,0.1-3.6
		c0-1.3-0.1-2.2-0.4-2.7c-0.3-0.5-0.8-0.7-1.6-0.8c-0.2,0-0.3-0.1-0.3-0.2c0-0.2,0.1-0.2,0.2-0.2c0.2,0,0.5,0,1,0.1
		c0.3,0,0.5,0.1,0.7,0.1c0.4,0,1-0.1,1.9-0.2c0.1,0,0.2,0,0.2,0c0.2,0,0.3,0.1,0.3,0.2c0,0.1-0.1,0.2-0.3,0.3
		c-0.7,0.1-1.1,0.8-1.1,2v0.4l-0.1,5.3l0,0.7l0,0.9l0,0.6l0,1.1c0,0.2-0.1,0.2-0.2,0.2c-0.1,0-0.2-0.1-0.3-0.2l-7.8-8.6
		c-0.1-0.1-0.2-0.2-0.3-0.2c-0.1,0-0.2,0.1-0.2,0.4l0,0.2v3.3c0,1.8,0.1,3,0.3,3.6c0.2,0.6,0.7,1,1.7,1.1c0.2,0,0.3,0.1,0.3,0.2
		c0,0.2-0.1,0.3-0.3,0.3c-0.1,0-0.2,0-0.3,0c-0.5-0.1-1-0.1-1.6-0.1c-0.6,0-1.1,0-1.5,0.1c-0.2,0-0.3,0-0.4,0
		c-0.2,0-0.2-0.1-0.2-0.2c0-0.1,0.1-0.2,0.2-0.2c0.4-0.1,0.7-0.4,0.9-0.7c0.2-0.4,0.3-0.9,0.3-1.6l0.1-2v-3.7c0-1.8-0.6-2.7-1.9-2.8
		c-0.2,0-0.3-0.1-0.3-0.2c0-0.2,0.1-0.2,0.3-0.2l0.6,0l0.4,0c0.4,0,0.9,0,1.4-0.1c0.2,0,0.3,0,0.5,0c0.2,0,0.3,0,0.4,0.1
		c0.1,0.1,0.3,0.3,0.6,0.7l0.6,0.7C146.6,37.7,146.7,37.9,146.7,37.9z"/>
	<path class="st0" d="M159.6,45l0.1,0.9c0.1,0.4,0.2,0.8,0.5,1c0.3,0.2,0.6,0.3,1,0.3c0.3,0,0.4,0.1,0.4,0.3c0,0.2-0.2,0.3-0.6,0.3
		c-0.2,0-0.4,0-0.7,0c-0.7-0.1-1.3-0.1-1.8-0.1c-0.6,0-1,0-1.4,0.1c-0.3,0.1-0.5,0.1-0.6,0.1s-0.2-0.1-0.2-0.2l0-0.1l0.2-0.2
		c0.4-0.1,0.7-0.3,0.8-0.5c0.1-0.2,0.2-0.6,0.2-1.1l0-0.8v-6.8c0-0.5-0.1-0.9-0.3-1.1c-0.2-0.2-0.5-0.4-1-0.4
		c-0.3,0-0.5-0.1-0.6-0.1c-0.1,0-0.1-0.1-0.1-0.2c0-0.2,0.1-0.2,0.2-0.2c0.1,0,0.3,0,0.5,0.1c0.2,0,0.5,0.1,1,0.1
		c0.3,0,0.7,0,1.2-0.1l0.6,0c0.6,0,1-0.1,1.4-0.1c0.2,0,0.3,0.1,0.3,0.2c0,0.1,0,0.2,0,0.2c0,0-0.1,0.1-0.2,0.1
		c-0.4,0.1-0.7,0.2-0.8,0.3c-0.1,0.2-0.2,0.5-0.2,1V45z"/>
	<path class="st0" d="M168.5,38.1v6.4c0,1,0.1,1.6,0.4,2c0.3,0.4,0.8,0.6,1.5,0.7c0.2,0,0.3,0.1,0.3,0.3c0,0.1-0.1,0.2-0.3,0.2
		c0,0-0.1,0-0.2,0l-0.6,0l-1.1-0.1c-0.1,0-0.2,0-0.3,0c-0.3,0-0.6,0-0.9,0l-1.9,0.1c-0.2,0-0.3,0-0.4,0c-0.2,0-0.3-0.1-0.3-0.2
		c0-0.1,0-0.2,0.1-0.2c0.1,0,0.2-0.1,0.3-0.1c0.4,0,0.8-0.2,1-0.5c0.2-0.3,0.4-0.7,0.4-1.2l0-0.4v-7.6c0-0.4-0.2-0.7-0.7-0.7
		c-1.1,0-1.9,0.1-2.3,0.2c-0.3,0.1-0.5,0.3-0.6,0.4c-0.1,0.2-0.2,0.5-0.4,1.2l-0.1,0.2c-0.1,0.2-0.2,0.4-0.3,0.4
		c-0.2,0-0.3-0.1-0.3-0.3c0-0.2,0-0.4,0.1-0.7l0.1-0.7l0.1-0.8l0.1-0.5c0-0.2,0.1-0.3,0.4-0.3c0.1,0,0.2,0,0.3,0c0.2,0,0.5,0,0.9,0
		l1.7,0l2.1,0c1.3,0,2.8,0,4.3-0.1c0.3,0,0.5,0,0.6,0c0.3,0,0.5,0.1,0.5,0.4l0,0.6c0,0.1,0,0.3,0.1,0.7c0,0.3,0.1,0.5,0.1,0.7
		c0,0.2-0.1,0.3-0.2,0.3c-0.1,0-0.2-0.1-0.3-0.3c-0.1-0.5-0.3-0.9-0.7-1.2c-0.3-0.2-0.8-0.4-1.5-0.4c-0.9,0-1.4,0.1-1.6,0.2
		C168.6,37.2,168.5,37.5,168.5,38.1z"/>
	<path class="st0" d="M180.3,43.1v2.5l0,0.6c0.1,0.6,0.7,1,1.7,1.1c0.2,0,0.3,0.1,0.3,0.2c0,0.2-0.1,0.3-0.4,0.3c-0.1,0-0.3,0-0.4,0
		l-1.2-0.1c-0.2,0-0.6,0-1,0c-1.1,0-1.8,0-2.1,0.1c-0.2,0-0.4,0.1-0.5,0.1c-0.1,0-0.2-0.1-0.2-0.3c0-0.1,0.1-0.2,0.2-0.2
		c0.6-0.1,1.1-0.3,1.3-0.6c0.2-0.3,0.3-0.8,0.3-1.6v-1.6c0-0.4-0.1-0.8-0.4-1.2c-0.3-0.5-0.6-1.1-1-1.8l-1.3-2.4
		c-0.5-1-1.1-1.5-1.8-1.6c-0.2,0-0.3-0.1-0.3-0.2c0-0.2,0.1-0.3,0.2-0.3c0.1,0,0.4,0,0.7,0.1c0.6,0.1,1.2,0.1,1.7,0.1
		c0.5,0,0.9,0,1.4-0.1c0.4,0,0.6-0.1,0.7-0.1c0.2,0,0.4,0.1,0.4,0.2c0,0.1-0.1,0.2-0.3,0.2c-0.4,0.1-0.7,0.3-0.7,0.6
		c0,0.2,0.2,0.8,0.6,1.6l0.7,1.3c0.3,0.5,0.4,0.9,0.5,1c0.2,0.4,0.4,0.6,0.6,0.6c0.2,0,0.4-0.3,0.7-0.9c0.1-0.1,0.3-0.5,0.6-1
		c0.6-1.1,0.9-1.8,0.9-2.1c0-0.2-0.1-0.5-0.4-0.7c-0.3-0.2-0.6-0.3-1-0.4c-0.2,0-0.3-0.1-0.3-0.2c0-0.2,0.1-0.3,0.2-0.3
		c0.2,0,0.3,0,0.4,0l0.6,0.1c0.2,0,0.5,0,0.9,0c0.2,0,0.4,0,0.6,0l0.7,0c0.2,0,0.4,0,0.7,0c0.2,0,0.2,0.1,0.2,0.2
		c0,0.1-0.1,0.2-0.3,0.3c-0.4,0.1-0.8,0.3-1,0.6c-0.3,0.3-0.6,0.8-1,1.6c-0.7,1.4-1.4,2.6-2,3.5c-0.1,0.2-0.2,0.3-0.2,0.4
		C180.3,42.6,180.3,42.8,180.3,43.1z"/>
	<path class="st0" d="M200.7,30.7c1.5,0,2.8,0.3,4,1l0.8,0.5c0.2,0.1,0.3,0.1,0.4,0.1c0.2,0,0.3-0.1,0.4-0.2l0.3-0.4
		c0-0.1,0.1-0.1,0.2-0.1c0.3,0,0.4,0.3,0.4,0.8l0,0.9v1.1l0.1,0.9l0.1,0.5c0,0.3,0.1,0.5,0.1,0.7c0,0.3-0.1,0.5-0.3,0.5
		c-0.1,0-0.2-0.1-0.3-0.3c-0.1-0.3-0.3-0.8-0.7-1.4c-0.4-0.6-0.8-1.1-1.1-1.5c-1.4-1.5-3-2.3-4.7-2.3c-1.5,0-2.8,0.6-3.8,1.9
		c-1,1.3-1.4,2.9-1.4,4.9c0,2.6,0.8,4.7,2.4,6.3c1.2,1.2,2.5,1.8,3.9,1.8c0.8,0,1.7-0.2,2.6-0.6c0.9-0.4,1.6-0.9,2.2-1.5l0.8-0.9
		c0.1-0.1,0.2-0.2,0.3-0.2c0.2,0,0.2,0.1,0.2,0.3c0,0.3-0.3,0.9-1,1.6c-1.7,1.9-3.8,2.9-6.2,2.9c-2.4,0-4.3-0.8-5.8-2.3
		c-1.5-1.5-2.2-3.5-2.2-6c0-1.3,0.3-2.7,0.8-3.9c0.6-1.3,1.3-2.3,2.2-3.1C196.9,31.3,198.7,30.7,200.7,30.7z"/>
	<path class="st0" d="M215.6,35.8c1.8,0,3.2,0.5,4.3,1.6c1.1,1,1.6,2.4,1.6,4.1c0,1.8-0.6,3.4-1.7,4.7c-1.1,1.2-2.6,1.9-4.5,1.9
		c-1.8,0-3.3-0.5-4.4-1.6c-1.1-1.1-1.7-2.5-1.7-4.3c0-0.8,0.1-1.5,0.4-2.3c0.3-0.8,0.7-1.4,1.1-1.9c0.6-0.6,1.3-1.1,2.1-1.4
		C213.7,35.9,214.6,35.8,215.6,35.8z M215,36.4c-1.1,0-2,0.4-2.7,1.3c-0.6,0.8-1,2-1,3.5c0,1.8,0.4,3.2,1.2,4.4
		c0.8,1.1,1.9,1.7,3.2,1.7c1.2,0,2.1-0.5,2.8-1.4c0.7-0.9,1.1-2.2,1.1-3.7c0-0.9-0.2-1.8-0.5-2.6c-0.3-0.9-0.8-1.5-1.3-2
		C217,36.8,216,36.4,215,36.4z"/>
	<path class="st0" d="M225.9,45c0,1.1,0.1,1.7,0.4,1.8c0.1,0.1,0.4,0.1,0.8,0.1c1.9,0,3.3-0.6,4.1-1.7c0.2-0.3,0.4-0.5,0.5-0.5
		c0.1,0,0.2,0.1,0.2,0.3c0,0.7-0.2,1.4-0.7,1.9c-0.4,0.5-1,0.8-1.7,0.8c-0.1,0-0.4,0-0.8,0c-0.1,0-0.4,0-1-0.1l-0.9,0
		c-0.3,0-0.7,0-1.1,0c-0.7,0-1.4,0-2.1,0.1c-0.2,0-0.4,0-0.5,0c-0.2,0-0.2-0.1-0.2-0.2c0-0.1,0.1-0.2,0.2-0.2
		c0.4-0.1,0.6-0.3,0.8-0.6c0.1-0.3,0.2-0.8,0.2-1.4v-7.1c0-0.9-0.4-1.4-1.1-1.5l-0.5-0.1c-0.2,0-0.3-0.1-0.3-0.3
		c0-0.2,0.1-0.3,0.3-0.3c0.1,0,0.1,0,0.2,0c0.1,0,0.2,0,0.3,0l0.4,0c0.3,0,0.6,0.1,0.8,0.1c0.3,0,0.7,0,1.3-0.1
		c0.4,0,0.9-0.1,1.4-0.1c0.3,0,0.5,0.1,0.5,0.2c0,0.1-0.1,0.2-0.4,0.2c-0.6,0-0.9,0.4-0.9,1.2V45z"/>
	<path class="st0" d="M235.8,45c0,1.1,0.1,1.7,0.4,1.8c0.1,0.1,0.4,0.1,0.8,0.1c1.9,0,3.3-0.6,4.1-1.7c0.2-0.3,0.4-0.5,0.5-0.5
		c0.1,0,0.2,0.1,0.2,0.3c0,0.7-0.2,1.4-0.7,1.9c-0.4,0.5-1,0.8-1.7,0.8c-0.1,0-0.4,0-0.8,0c-0.1,0-0.4,0-1-0.1l-0.9,0
		c-0.3,0-0.7,0-1.1,0c-0.7,0-1.4,0-2.1,0.1c-0.2,0-0.4,0-0.5,0c-0.2,0-0.2-0.1-0.2-0.2c0-0.1,0.1-0.2,0.2-0.2
		c0.4-0.1,0.6-0.3,0.8-0.6c0.1-0.3,0.2-0.8,0.2-1.4v-7.1c0-0.9-0.4-1.4-1.1-1.5l-0.5-0.1c-0.2,0-0.3-0.1-0.3-0.3
		c0-0.2,0.1-0.3,0.3-0.3c0.1,0,0.1,0,0.2,0c0.1,0,0.2,0,0.3,0l0.4,0c0.3,0,0.6,0.1,0.8,0.1c0.3,0,0.7,0,1.3-0.1
		c0.4,0,0.9-0.1,1.4-0.1c0.3,0,0.5,0.1,0.5,0.2c0,0.1-0.1,0.2-0.4,0.2c-0.6,0-0.9,0.4-0.9,1.2V45z"/>
	<path class="st0" d="M245.6,38v1.9c0,0.5,0,0.9,0.1,1c0.1,0.1,0.3,0.2,0.6,0.2l0.3,0l0.4,0h0.7c0.6,0,1-0.3,1.3-0.9l0.2-0.4
		c0.1-0.1,0.1-0.2,0.3-0.2c0.1,0,0.2,0.1,0.2,0.2c0,0,0,0.2,0,0.4c0,0.1,0,0.3,0,0.4c0,0.2,0,0.6,0.1,1.3c0,0.4,0.1,0.8,0.1,1.1
		l0,0.4c0,0.1,0,0.1,0,0.2c0,0-0.1,0.1-0.1,0.1c-0.1,0-0.2-0.1-0.3-0.3c-0.1-0.5-0.2-0.9-0.5-1.1c-0.1-0.1-0.3-0.2-0.5-0.3
		c-0.2,0-0.6-0.1-1.2-0.1h-0.6c-0.3,0-0.5,0-0.6,0.1c-0.1,0.1-0.2,0.2-0.2,0.5c0,0.3-0.1,0.7-0.1,1.3v0.8c0,0.8,0.1,1.4,0.2,1.7
		c0.1,0.3,0.2,0.4,0.3,0.5c0.1,0.1,0.3,0.1,0.6,0.1c2.3,0,3.8-0.7,4.5-2.1c0-0.1,0.1-0.1,0.1-0.1c0.1,0,0.1,0,0.2,0.1
		c0,0,0.1,0.1,0.1,0.2c0,0.6-0.2,1.1-0.5,1.6c-0.3,0.4-0.6,0.8-0.9,1c-0.4,0.2-0.9,0.3-1.5,0.3c-0.4,0-0.8,0-1.2-0.1l-1-0.1
		c-0.4,0-0.9-0.1-1.5-0.1c-0.4,0-1,0-1.9,0.1c-0.2,0-0.4,0-0.5,0c-0.1,0-0.2-0.1-0.2-0.2c0-0.1,0.1-0.2,0.2-0.2
		c0.3-0.1,0.5-0.3,0.7-0.4c0.1-0.1,0.2-0.4,0.3-0.7c0.1-0.3,0.1-0.7,0.1-1.2v-6.8c0-0.6-0.1-1.1-0.3-1.3c-0.2-0.2-0.6-0.4-1.3-0.5
		c-0.2,0-0.2-0.1-0.2-0.3c0-0.1,0.1-0.2,0.3-0.2c0,0,0.1,0,0.3,0c0.1,0,0.2,0,0.4,0l0.9,0l3.2,0c1.9,0,3,0,3.4-0.1c0,0,0.1,0,0.1,0
		c0.2,0,0.2,0.1,0.2,0.3c0,0.1,0,0.4,0.1,0.7c0,0.5,0.1,0.9,0.1,1.1c0,0.4-0.1,0.7-0.3,0.7c-0.1,0-0.2-0.1-0.2-0.4
		c0-0.6-0.2-1-0.6-1.2c-0.4-0.3-1.1-0.4-2-0.4h-1l-0.6,0.1c-0.3,0.1-0.4,0.4-0.4,0.9L245.6,38z"/>
	<path class="st0" d="M258.5,35.8c1,0,2.1,0.3,3.3,0.8c0.3,0.1,0.5,0.2,0.6,0.2c0.1,0,0.2,0,0.2-0.1l0.1-0.1
		c0.1-0.1,0.1-0.1,0.2-0.1c0.2,0,0.3,0.1,0.3,0.3l0,0.6l0,1.2l0,0.6c0,0.2,0,0.3,0.1,0.5c0,0.1,0,0.1,0,0.2c0,0.2-0.1,0.3-0.3,0.3
		c-0.1,0-0.2-0.1-0.2-0.4c-0.1-0.7-0.5-1.3-1.1-2c-0.9-0.9-1.9-1.4-3.1-1.4c-1.2,0-2.1,0.5-2.8,1.4c-0.7,0.9-1,2.1-1,3.6
		c0,1.6,0.4,3,1.1,4.1c0.7,1.1,1.6,1.7,2.7,1.7c0.3,0,0.7-0.1,1.2-0.2c0.5-0.1,0.8-0.3,1.1-0.5c0.2-0.1,0.4-0.4,0.5-0.6
		c0.1-0.3,0.1-0.7,0.1-1.3c0-0.7-0.1-1.2-0.4-1.4c-0.2-0.3-0.7-0.4-1.4-0.4c-0.2,0-0.3-0.1-0.3-0.3c0-0.2,0.1-0.2,0.3-0.2
		c0.1,0,0.2,0,0.3,0c0.6,0.1,1.2,0.1,1.9,0.1c0.7,0,1.3,0,1.6-0.1c0.3,0,0.5-0.1,0.6-0.1c0.2,0,0.3,0.1,0.3,0.2
		c0,0.1-0.1,0.2-0.3,0.3c-0.3,0.1-0.6,0.2-0.7,0.5c-0.1,0.3-0.2,0.8-0.2,1.4c0,0.2,0,0.4,0,0.6c0,0.3,0,0.5,0,0.6
		c0,0.2,0,0.3-0.1,0.4c-0.1,0.1-0.2,0.2-0.4,0.2c-0.1,0-0.6,0.2-1.4,0.6c-1.4,0.6-2.5,0.9-3.6,0.9c-1.5,0-2.8-0.5-3.8-1.6
		c-1-1-1.5-2.4-1.5-4c0-1.8,0.6-3.4,1.7-4.6C255.4,36.4,256.8,35.8,258.5,35.8z"/>
	<path class="st0" d="M268.7,38v1.9c0,0.5,0,0.9,0.1,1c0.1,0.1,0.3,0.2,0.6,0.2l0.3,0l0.4,0h0.7c0.6,0,1-0.3,1.3-0.9l0.2-0.4
		c0.1-0.1,0.1-0.2,0.3-0.2c0.1,0,0.2,0.1,0.2,0.2c0,0,0,0.2,0,0.4c0,0.1,0,0.3,0,0.4c0,0.2,0,0.6,0.1,1.3c0,0.4,0.1,0.8,0.1,1.1
		l0,0.4c0,0.1,0,0.1,0,0.2c0,0-0.1,0.1-0.1,0.1c-0.1,0-0.2-0.1-0.3-0.3c-0.1-0.5-0.2-0.9-0.5-1.1c-0.1-0.1-0.3-0.2-0.5-0.3
		c-0.2,0-0.6-0.1-1.2-0.1h-0.6c-0.3,0-0.5,0-0.6,0.1c-0.1,0.1-0.2,0.2-0.2,0.5c0,0.3-0.1,0.7-0.1,1.3v0.8c0,0.8,0.1,1.4,0.2,1.7
		c0.1,0.3,0.2,0.4,0.3,0.5c0.1,0.1,0.3,0.1,0.6,0.1c2.3,0,3.8-0.7,4.5-2.1c0-0.1,0.1-0.1,0.1-0.1c0.1,0,0.1,0,0.2,0.1
		c0,0,0.1,0.1,0.1,0.2c0,0.6-0.2,1.1-0.5,1.6c-0.3,0.4-0.6,0.8-0.9,1c-0.4,0.2-0.9,0.3-1.5,0.3c-0.4,0-0.8,0-1.2-0.1l-1-0.1
		c-0.4,0-0.9-0.1-1.5-0.1c-0.4,0-1,0-1.9,0.1c-0.2,0-0.4,0-0.5,0c-0.1,0-0.2-0.1-0.2-0.2c0-0.1,0.1-0.2,0.2-0.2
		c0.3-0.1,0.5-0.3,0.7-0.4c0.1-0.1,0.2-0.4,0.3-0.7c0.1-0.3,0.1-0.7,0.1-1.2v-6.8c0-0.6-0.1-1.1-0.3-1.3c-0.2-0.2-0.6-0.4-1.3-0.5
		c-0.2,0-0.2-0.1-0.2-0.3c0-0.1,0.1-0.2,0.3-0.2c0,0,0.1,0,0.3,0c0.1,0,0.2,0,0.4,0l0.9,0l3.2,0c1.9,0,3,0,3.4-0.1c0,0,0.1,0,0.1,0
		c0.2,0,0.2,0.1,0.2,0.3c0,0.1,0,0.4,0.1,0.7c0,0.5,0.1,0.9,0.1,1.1c0,0.4-0.1,0.7-0.3,0.7c-0.1,0-0.2-0.1-0.2-0.4
		c0-0.6-0.2-1-0.6-1.2c-0.4-0.3-1.1-0.4-2-0.4h-1l-0.6,0.1c-0.3,0.1-0.4,0.4-0.4,0.9L268.7,38z"/>
	<path class="st0" d="M279.2,35.8c0.5,0,1.1,0.1,1.6,0.3l0.6,0.2c0.3,0.1,0.4,0.2,0.5,0.2c0.1,0,0.2,0,0.2-0.1l0.3-0.2
		c0,0,0.1,0,0.1,0c0.1,0,0.2,0.1,0.2,0.3l0,0.7c0,0.1,0,0.2,0,0.3l0.1,0.8l0.1,0.8c0,0.1,0,0.1,0,0.2c0,0.2-0.1,0.4-0.2,0.4
		c-0.1,0-0.2-0.1-0.2-0.3c-0.2-0.8-0.6-1.5-1.2-2.1c-0.7-0.6-1.4-0.9-2.1-0.9c-0.5,0-1,0.2-1.3,0.5c-0.4,0.3-0.6,0.8-0.6,1.2
		c0,0.4,0.2,0.8,0.5,1.1c0.2,0.2,0.9,0.5,2,1c1.4,0.6,2.2,1.1,2.7,1.6c0.5,0.6,0.8,1.4,0.8,2.3c0,1-0.4,1.9-1.1,2.6
		c-0.7,0.7-1.6,1.1-2.5,1.1c-0.4,0-1-0.1-1.9-0.4c-0.4-0.1-0.7-0.2-0.9-0.3c-0.3-0.1-0.4-0.1-0.5-0.1c0,0-0.1-0.2-0.1-0.4
		c0-0.3-0.1-0.7-0.3-1.2c-0.2-0.8-0.3-1.3-0.3-1.5c0-0.3,0.1-0.4,0.3-0.4c0.1,0,0.1,0.1,0.2,0.2c0.3,1,0.8,1.8,1.5,2.5
		c0.7,0.7,1.4,1,2.1,1c0.6,0,1.1-0.2,1.5-0.7c0.5-0.4,0.7-0.9,0.7-1.5c0-0.4-0.1-0.8-0.4-1.1c-0.2-0.3-0.6-0.6-1.2-0.8l-1.3-0.6
		c-1.2-0.5-2.1-1.1-2.5-1.6c-0.4-0.5-0.7-1.1-0.7-1.9c0-0.9,0.3-1.7,0.9-2.4C277.5,36.1,278.3,35.8,279.2,35.8z"/>
</g>
<g>
	<path class="st1" d="M27,0.3c-0.2,0-0.4,0-0.6,0c-0.1,0-0.2,0-0.3,0l-0.2,0c-0.2,0-0.3,0-0.4,0l-0.4,0c-0.2,0-0.3,0-0.5,0
		c-1.5,0.1-3,0.4-4.4,0.8l-0.4,0.1c-0.1,0-0.1,0-0.2,0.1l-0.2,0C7.9,4.9,0,15.6,0.3,27.6C0.6,42,12.6,53.7,27,53.7
		c0.2,0,0.4,0,0.6,0c7.1-0.2,13.8-3.1,18.7-8.3c4.9-5.2,7.6-11.9,7.4-19c0-1.6-0.2-3.3-0.6-5c-0.1-0.4-0.2-0.8-0.3-1.1L52.7,20
		c-0.2-0.7-0.4-1.3-0.6-1.8C49.9,11.6,44.9,6,38.6,3c-0.1,0-0.2-0.1-0.3-0.1l-0.7-0.3C34.2,1.1,30.6,0.3,27,0.3z"/>
	<g>
		<g>
			<path class="st0" d="M27,54C12.4,54,0.3,42.2,0,27.6c-0.3-12.1,7.6-23,19.3-26.5L20,0.9c1.5-0.4,3-0.7,4.5-0.8c0.2,0,0.3,0,0.5,0
				l0.4,0c0.2,0,0.3,0,0.5,0l0.2,0c0.1,0,0.2,0,0.3,0c0.2,0,0.4,0,0.6,0c3.7,0,7.3,0.8,10.8,2.3l0.7,0.3c0.1,0,0.2,0.1,0.3,0.1
				c6.4,3.1,11.4,8.7,13.8,15.4c0.2,0.5,0.4,1.1,0.6,1.9l0.1,0.2c0.1,0.4,0.2,0.8,0.3,1.2c0.4,1.7,0.6,3.4,0.6,5.1
				c0.2,7.2-2.5,14-7.5,19.3c-5,5.2-11.7,8.2-18.9,8.4C27.4,54,27.2,54,27,54z M27,0.7c-0.2,0-0.4,0-0.6,0c-0.1,0-0.2,0-0.3,0
				l-0.2,0c-0.1,0-0.3,0-0.4,0l-0.4,0c-0.2,0-0.3,0-0.5,0c-1.5,0.1-2.9,0.4-4.4,0.8l-0.4,0.1c-0.1,0-0.1,0-0.2,0.1l-0.2,0
				c-11.3,3.4-19,14-18.8,25.8C1,41.8,12.8,53.3,27,53.3c0.2,0,0.4,0,0.6,0c7-0.2,13.5-3.1,18.4-8.1c4.9-5.1,7.4-11.7,7.3-18.8
				c0-1.6-0.2-3.3-0.6-5c-0.1-0.4-0.2-0.8-0.3-1.1l-0.1-0.2c-0.2-0.7-0.4-1.3-0.5-1.8c-2.3-6.5-7.2-11.9-13.4-15
				c-0.1,0-0.2-0.1-0.3-0.1l-0.7-0.3C34.1,1.4,30.6,0.7,27,0.7z"/>
		</g>
		<path class="st0" d="M38.9,20.5c-0.1-0.1-0.3-0.2-0.4-0.3c-0.1-0.1-0.3-0.2-0.4-0.3c-0.6-0.3-1.1-0.6-1.7-0.9
			c-0.2-0.1-0.3-0.2-0.5-0.2c-0.2-0.1-0.3-0.2-0.5-0.2c-1.3-0.7-2.7-1.2-4-1.8c-1-0.4-1.9-0.7-2.8-1c-0.4-0.1-0.8-0.2-1.1-0.3
			c0.5,0.3,0.9,0.6,1.4,0.9c2.3,1.5,4.5,3.3,6.4,5.3c0.3,0.3,0.6,0.7,0.9,1c0.2,0.2,0.4,0.4,0.6,0.6c0,0,0,0,0,0
			c0.4,0.5,0.8,0.9,1.2,1.4c0.4,0.5,0.7,0.9,1,1.4c0.2,0.2,0.3,0.5,0.5,0.7c0.2,0.3,0.3,0.5,0.5,0.8c0.8,1.4,1.6,2.8,2.1,4.3
			c0.1-0.3,0.3-0.5,0.4-0.8l0.9,0.5c-0.2,0.7-0.4,1.3-0.7,2l0.1,0.4c0.4,1.3,0.6,2.6,0.6,3.8c0.2,3.6-0.9,6.7-3.1,9.1
			c3.6-2.4,6.4-5.7,8.3-9.5c0.8-3.3,0.3-6.5-1.6-9.4C45.1,24.9,42.1,22.5,38.9,20.5z"/>
		<path class="st0" d="M35.8,36.7c0,0.1,0,0.3,0,0.4c0,0.1,0,0.3,0,0.4c0,0,0,0.1,0,0.1c0.1,0,0.1-0.1,0.2-0.1
			c0.2-0.1,0.4-0.3,0.7-0.4c0.2-0.1,0.4-0.2,0.6-0.4c0.8-0.6,1.6-1.2,2.3-1.9c0.1-0.1,0.2-0.2,0.4-0.4c0.1-0.1,0.3-0.2,0.4-0.4
			c0.4-0.5,0.8-1.1,1.2-1.6l-0.1-0.2c-0.4-1.1-0.9-2.2-1.5-3.2c-0.2-0.3-0.3-0.6-0.5-0.8c-0.2-0.3-0.3-0.5-0.5-0.8
			c-0.5-0.8-1.1-1.6-1.7-2.4c-2.8-3.7-6.6-6.9-10.7-9.2c3.5,3.7,6.2,8.5,7.8,13.5C35.3,31.8,35.7,34.3,35.8,36.7z"/>
		<path class="st0" d="M41.8,43.1c0.2-0.4,0.3-0.8,0.4-1.1c0-0.1,0-0.1,0-0.1c0.1-0.4,0.2-0.8,0.3-1.2c0,0,0-0.1,0-0.1
			c0.1-0.9,0.2-1.8,0.1-2.8c0-1.1-0.2-2.2-0.5-3.3c-0.5,1-1,1.9-1.6,2.7c-0.1,0.1-0.2,0.2-0.2,0.3c-1.3,1.7-2.9,3.2-4.8,4.3
			l-0.1,0.3c-0.2,0.7-0.4,1.4-0.6,2.1c-1.3,3.5-3.7,5.7-7,6.5c3.2-0.1,6.2-0.8,9.1-2.1c0.7-0.4,1.4-0.9,2-1.5c1.3-1.1,2.2-2.5,2.9-4
			C41.8,43.2,41.8,43.1,41.8,43.1z"/>
		<path class="st0" d="M26,16c2.4,5.4,3.6,10.6,3.8,15.3c0.1,2-0.1,3.8-0.4,5.5c0,0.1,0,0.3-0.1,0.4c0,0.1,0,0.3-0.1,0.4
			c-0.2,0.7-0.4,1.4-0.6,2.1c2.3-0.1,4.5-0.7,6.6-1.6c0-0.1,0-0.3,0-0.4c0-0.1,0-0.3,0-0.4c0-0.1,0-0.3,0-0.4c0-0.1,0-0.2,0-0.2
			c0-0.2,0-0.4,0-0.6c0-0.4-0.1-0.8-0.1-1.2c0-0.3-0.1-0.6-0.1-0.9c-0.1-0.4-0.2-0.8-0.2-1.3c-0.1-0.3-0.1-0.6-0.2-0.9
			c-0.2-0.7-0.4-1.4-0.6-2.2c-0.2-0.7-0.4-1.3-0.7-2c-1-2.6-2.3-5-3.8-7.3c0,0,0,0,0-0.1c-0.3-0.4-0.6-0.9-0.9-1.3
			c-0.1-0.1-0.2-0.3-0.3-0.4c-0.2-0.3-0.5-0.6-0.7-0.9c-0.2-0.2-0.4-0.5-0.6-0.7c-0.2-0.2-0.4-0.4-0.6-0.6
			C26.2,16.2,26.1,16.1,26,16z"/>
		<path class="st0" d="M29.1,49.7c0.2-0.1,0.4-0.2,0.7-0.3c0.2-0.1,0.4-0.2,0.6-0.3c0.2-0.1,0.4-0.2,0.6-0.4
			c0.2-0.1,0.4-0.3,0.6-0.5c0.2-0.1,0.3-0.3,0.5-0.4c0.2-0.2,0.4-0.4,0.5-0.6c0.1-0.1,0.2-0.3,0.4-0.4c0.2-0.3,0.4-0.6,0.6-0.9
			c0.1-0.1,0.1-0.2,0.2-0.3c0.2-0.4,0.5-0.9,0.6-1.4c0-0.1,0.1-0.2,0.1-0.3c0.2-0.5,0.3-0.9,0.4-1.4c-2.4,1.3-5.1,2.1-8,2.2
			c-0.3,0-0.5,0-0.8,0l-0.1,0.2c-2,2.2-4.6,3.4-7.4,3.5c-0.1,0-0.2,0-0.2,0c-0.9,0-1.9-0.1-2.8-0.4c2.2,1.2,4.5,2.1,6.9,2.6
			c0.9,0.1,1.8,0.2,2.7,0.2c0,0,0,0,0,0c0.4,0,0.8-0.1,1.2-0.1c0.3,0,0.6-0.1,0.9-0.1c0.2,0,0.4-0.1,0.6-0.1
			c0.3-0.1,0.5-0.1,0.7-0.2C28.7,49.8,28.9,49.7,29.1,49.7z"/>
		<path class="st0" d="M18.4,47.5c2.5-0.1,4.8-1.1,6.7-3c-3.2-0.2-6.1-1.3-8.6-3l-0.2,0.1c-0.9,0.3-1.7,0.4-2.6,0.4
			c-0.1,0-0.2,0-0.2,0c-2.5,0-4.9-1-6.7-2.7c1.4,2.3,3.1,4.3,5.1,6C13.8,46.8,16.1,47.5,18.4,47.5L18.4,47.5z"/>
		<path class="st0" d="M22,37.1c-0.1,0.1-0.2,0.3-0.3,0.4c-0.1,0.2-0.2,0.3-0.4,0.5c2,1,4.3,1.6,6.6,1.6c0.2-0.7,0.4-1.4,0.6-2.1
			c0-0.1,0-0.3,0.1-0.4c0-0.1,0.1-0.3,0.1-0.4c0.3-1.7,0.5-3.5,0.4-5.5c-0.2-4.5-1.4-9.4-3.6-14.6c1,10.6-1.1,16.7-3.3,20.1
			C22.2,36.9,22.1,37,22,37.1z"/>
		<path class="st0" d="M40.3,7.2C40.1,7.2,40,7.1,39.9,7c-0.1-0.1-0.3-0.1-0.4-0.2c-1.4-0.8-2.8-1.5-4.3-2.1
			c-0.1-0.1-0.3-0.1-0.4-0.2c-0.2-0.1-0.3-0.1-0.5-0.2c-2.5-0.8-5.1-1.2-7.8-1.1c-1.4,0-2.7,0.2-4,0.5c-0.1,0-0.3,0-0.4,0.1
			c-0.1,0-0.3,0-0.4,0.1c-0.3,0.1-0.5,0.2-0.8,0.2c-0.1,0-0.2,0.1-0.4,0.1c-0.1,0-0.2,0.1-0.4,0.1C10.1,7.2,3,16.6,3.2,27.5
			c0.1,3.1,0.7,6,1.9,8.8C5.5,37,6,37.6,6.5,38.2c0.1,0.1,0.2,0.3,0.4,0.4c0.2,0.2,0.4,0.4,0.6,0.5c0.1,0.1,0.2,0.2,0.3,0.2
			c0.3,0.2,0.6,0.5,1,0.6c0.1,0.1,0.2,0.1,0.3,0.1c0.3,0.1,0.5,0.3,0.8,0.4c0.1,0.1,0.3,0.1,0.4,0.2c0.2,0.1,0.5,0.2,0.7,0.2
			c0.2,0,0.3,0.1,0.5,0.1c0.2,0.1,0.4,0.1,0.6,0.1c0.2,0,0.4,0.1,0.5,0.1c0.2,0,0.4,0,0.6,0c0.2,0,0.3,0,0.5,0c0.4,0,0.8,0,1.2-0.1
			c0.1,0,0.2,0,0.2-0.1c0.3,0,0.5-0.1,0.8-0.2c-1.3-1-2.4-2.1-3.4-3.4c0-0.1-0.1-0.1-0.1-0.2c-2-2.8-3.3-6.2-3.4-9.9
			c-0.2-7.8,4.8-14.5,11.8-16.9l0.5,0.9c-4.9,2.6-8.2,7.7-8,13.6c0,1.5,0.3,2.9,0.7,4.3c0.1,0.2,0.1,0.4,0.2,0.6
			c0.1,0.2,0.1,0.4,0.2,0.6c0.2,0.4,0.4,0.9,0.6,1.3l3.8-2.9c0.4-0.3,0.5-0.5,0.5-1.3l-0.1-5.4l0-0.6l0-0.6l-0.1-5.3l3-2.3l0.4-0.3
			l0.3-0.3l0.1-0.1l0.2-0.2l0.3-0.2L27.7,9l4.9,1.3l0.4,0.1l0.4,0.1l2.6,0.7l0.4,0.1l0.4,0.1l2.3,0.6c0.7,0.2,0.9,0.1,1.3-0.2
			l0.8-0.4l1.3,0.6l-4.2,3.2c-0.3,0.2-0.6,0.3-0.9,0.4c-0.1,0-0.3,0.1-0.4,0.1c-0.1,0-0.3,0-0.4,0c-0.4,0-0.7-0.1-1-0.2l-0.7-0.2
			l-0.4-0.1L34.2,15l-8.6-2.2l-1.5,1.1l-0.3,0.2l-0.3,0.2l-0.4,0.3l0.2,10.4c0,0.8,0,1.8-0.9,2.5L15.7,33c1,1.5,2.2,2.7,3.6,3.8
			c0.2,0.1,0.4,0.3,0.6,0.4c0.2,0.1,0.4,0.3,0.6,0.4c0.1,0.1,0.2,0.1,0.3,0.2l0.1-0.1c0,0,0.1-0.1,0.1-0.1c0.1-0.1,0.2-0.2,0.2-0.3
			c0,0,0.1-0.1,0.1-0.1c0,0,0-0.1,0.1-0.1c0.1-0.1,0.1-0.2,0.2-0.3c0.4-0.6,0.9-1.3,1.3-2.1c0.1-0.1,0.1-0.3,0.2-0.4
			c0.1-0.2,0.2-0.4,0.2-0.6c0.1-0.2,0.2-0.4,0.2-0.6c0.1-0.1,0.1-0.3,0.2-0.4c0.1-0.2,0.2-0.5,0.3-0.8c0-0.1,0.1-0.3,0.1-0.4
			c0.1-0.3,0.2-0.6,0.2-0.9c0-0.1,0.1-0.3,0.1-0.4c0.1-0.3,0.1-0.6,0.2-1c0-0.1,0.1-0.3,0.1-0.5c0.1-0.3,0.1-0.7,0.2-1
			c0-0.2,0.1-0.3,0.1-0.5c0-0.3,0.1-0.7,0.1-1.1c0-0.2,0-0.4,0.1-0.6c0-0.4,0.1-0.7,0.1-1.1c0-0.2,0-0.5,0-0.7c0-0.4,0-0.7,0-1.1
			c0-0.3,0-0.5,0-0.8c0-0.4,0-0.8,0-1.2c0-0.3,0-0.6,0-0.9c0-0.4,0-0.8-0.1-1.2c0-0.3,0-0.7-0.1-1c0-0.4-0.1-0.8-0.1-1.2
			c0-0.3-0.1-0.6-0.1-0.9c0-0.1,0-0.1,0-0.2l0-0.2l-0.1-0.5l-0.1-0.4l0.4,0.1c2.7,0.6,6.4,1.8,10,3.5c0.2,0.1,0.3,0.2,0.5,0.2
			c0.2,0.1,0.3,0.2,0.5,0.2c0.6,0.3,1.2,0.6,1.8,1c0.1,0.1,0.3,0.2,0.4,0.3c0.1,0.1,0.3,0.2,0.4,0.3c3.6,2.1,6.8,4.8,8.7,7.9
			c1.5,2.3,2.1,4.8,2,7.3c0.9-2.7,1.4-5.5,1.3-8.4C50.6,18.4,46.5,11.4,40.3,7.2z"/>
	</g>
	<g>
		<path class="st2" d="M21.3,38c2,1,4.3,1.6,6.6,1.6l0.7,0c2.3-0.1,4.5-0.7,6.6-1.6l0.6-0.3c0.1,0,0.1-0.1,0.2-0.1
			c0.2-0.1,0.4-0.3,0.7-0.4c0.2-0.1,0.4-0.2,0.6-0.4c0.8-0.6,1.6-1.2,2.3-1.9c0.1-0.1,0.2-0.2,0.4-0.4c0.1-0.1,0.2-0.2,0.4-0.4
			c0.4-0.5,0.8-1.1,1.2-1.6l0.4-0.7c0.1-0.3,0.3-0.5,0.4-0.8l0.9,0.5c-0.2,0.7-0.4,1.3-0.7,2l-0.4,1c-0.5,1-1,1.9-1.6,2.7
			c-0.1,0.1-0.2,0.2-0.2,0.3c-1.3,1.7-2.9,3.2-4.8,4.3l-0.8,0.5c-2.4,1.3-5.1,2.1-8,2.2c-0.3,0-0.5,0-0.8,0l-0.9,0
			c-3.2-0.2-6.1-1.3-8.6-3l-0.7-0.5c-1.3-1-2.4-2.1-3.4-3.4c0-0.1-0.1-0.1-0.1-0.2c-2-2.8-3.3-6.2-3.4-9.9
			c-0.2-7.8,4.8-14.5,11.8-16.9l0.5,0.9c-4.9,2.6-8.2,7.7-8,13.6c0,1.5,0.3,2.9,0.7,4.3c0.1,0.2,0.1,0.4,0.2,0.6
			c0.1,0.2,0.1,0.4,0.2,0.6c0.2,0.4,0.4,0.9,0.6,1.3l3.8-2.9c0.4-0.3,0.5-0.5,0.5-1.3l-0.1-5.4l0-0.6l0-0.6l-0.1-5.3l3-2.3l0.4-0.3
			l0.3-0.3l0.1-0.1l0.2-0.2l0.3-0.2L27.7,9l4.9,1.3l0.4,0.1l0.4,0.1l2.6,0.7l0.4,0.1l0.4,0.1l2.3,0.6c0.7,0.2,0.9,0.1,1.3-0.2
			l0.8-0.4l1.3,0.6l-4.2,3.2c-0.3,0.2-0.6,0.3-0.9,0.4c-0.1,0-0.3,0.1-0.4,0.1c-0.1,0-0.3,0-0.4,0c-0.4,0-0.7-0.1-1-0.2l-0.7-0.2
			l-0.4-0.1L34.2,15l-8.6-2.2l-1.5,1.1l-0.3,0.2l-0.3,0.2l-0.4,0.3l0.2,10.4c0,0.8,0,1.8-0.9,2.5L15.7,33c1,1.5,2.2,2.7,3.6,3.8
			c0.2,0.1,0.4,0.3,0.6,0.4c0.2,0.1,0.4,0.3,0.6,0.4L21.3,38z"/>
	</g>
</g>
</svg>
