<svg xmlns="http://www.w3.org/2000/svg" viewBox="6054 553 16.191 16.191">
  <defs>
    <style>
      .cls-1 {
        fill: #fff;
      }
    </style>
  </defs>
  <g id="Group_79" data-name="Group 79" transform="translate(6041 274)">
    <path id="Path_34" data-name="Path 34" class="cls-1" d="M11.334,87.454a4.646,4.646,0,0,1-9.021-1.542A4.772,4.772,0,0,1,5.4,81.517v-.231a7.163,7.163,0,0,1,.386-2.236A6.95,6.95,0,1,0,13.8,87.069a7.163,7.163,0,0,1-2.236.386Z" transform="translate(13 202.34)"/>
    <path id="Path_35" data-name="Path 35" class="cls-1" d="M234.126,0a4.626,4.626,0,1,0,4.626,4.626A4.64,4.64,0,0,0,234.126,0Zm0,6.939a2.272,2.272,0,0,1-2.313-2.313,2.313,2.313,0,0,1,4.626,0A2.272,2.272,0,0,1,234.126,6.939Z" transform="translate(-209.561 279)"/>
  </g>
</svg>
