<svg id="Layer_1" data-name="Layer 1" xmlns="http://www.w3.org/2000/svg" viewBox="0 0 133.08 28.26"><defs><style>.cls-1{fill:#fff;}.cls-2{fill:#e31936;}.cls-3{fill:#7d6a55;}</style></defs><title>csu-logo</title><path class="cls-1" d="M-188.51-374.26" transform="translate(-0.13 -0.4)"/><rect class="cls-2" width="42" height="27"/><path class="cls-1" d="M18,11.66h2.8s0-1.88,0-2.63S20.28,6.31,17,6.33a3.63,3.63,0,0,0-3.87,3.61c0,1.05,0,6.82,0,8.23s1,3.32,3.83,3.33,3.74-1.6,3.77-2.79c0-1.37,0-2.54,0-2.54H18s0,1.34,0,2c0,.5-.26,1.19-1,1.12s-.85-.69-.86-1.63V10c0-.88.29-1.56.95-1.54S18,9,18,10Z" transform="translate(-0.13 -0.4)"/><path class="cls-1" d="M29.44,11.48s0-1.07,0-2.36S28.94,6.34,26,6.35,22.44,8,22.33,9.44A7.21,7.21,0,0,0,22.47,12a3.82,3.82,0,0,0,1.18,1.52c.87.79,2.19,1.85,2.71,2.47a2.93,2.93,0,0,1,.42,1.8,3,3,0,0,1-.2,1.33.85.85,0,0,1-.77.26c-.45,0-.83-.11-.82-1.1s0-2,0-2H22.19s0,2.1,0,2.64a3,3,0,0,0,.83,1.9,3.84,3.84,0,0,0,2.68.76,3.88,3.88,0,0,0,3-1c.51-.55.83-1.37.83-3.09A4.3,4.3,0,0,0,28,13.69c-1.25-1.21-2.47-2-2.75-2.7a4.46,4.46,0,0,1-.12-1.82.63.63,0,0,1,.71-.65c.42,0,.68.11.81.54a16.83,16.83,0,0,1,.09,2.42Z" transform="translate(-0.13 -0.4)"/><path class="cls-1" d="M38.93,6.51V21.32H36.29V19.51s-.25,2.15-3,2S31,18.15,31,17.08c0-.64,0-10.57,0-10.57h3V18a1.92,1.92,0,0,0,.17.81.82.82,0,0,0,.74.32,1,1,0,0,0,.82-.37,2,2,0,0,0,.25-1V6.51Z" transform="translate(-0.13 -0.4)"/><path class="cls-3" d="M54.16,2.88V4.56H51.81V13H49.7V4.56H47.35V2.88Z" transform="translate(-0.13 -0.4)"/><path class="cls-3" d="M58.21,13V8.11c0-.63-.11-1.12-.74-1.12s-.74.49-.74,1.12V13h-2V2.88h2V6.63h0a1.78,1.78,0,0,1,1.67-.86,1.6,1.6,0,0,1,1.76,1.54V13Z" transform="translate(-0.13 -0.4)"/><path class="cls-3" d="M63,9.76c0,.84,0,2.1.9,2.1.7,0,.84-.67.84-1.26h2A2.53,2.53,0,0,1,66,12.44a3,3,0,0,1-2.08.68c-2.55,0-2.89-1.55-2.89-3.76,0-1.94.28-3.59,2.89-3.59s3,1.73,2.88,4Zm1.81-1.1c0-.69,0-1.67-.91-1.67S63,8.06,63,8.66Z" transform="translate(-0.13 -0.4)"/><path class="cls-3" d="M70.6,7.93c0-2.68,0-5.22,3.49-5.22,2.15,0,3,1.19,2.94,3.36H75c0-1.35-.23-1.85-.86-1.85-1.19,0-1.35,1.12-1.35,3.71s.16,3.71,1.35,3.71c1,0,.93-1.26,1-2.06h2.09c0,2.7-1.08,3.57-3,3.57C70.6,13.15,70.6,10.57,70.6,7.93Z" transform="translate(-0.13 -0.4)"/><path class="cls-3" d="M83.4,11.67c0,.43,0,.88.09,1.31H81.66L81.58,12h0a2,2,0,0,1-1.85,1.08c-1.37,0-1.88-1-1.88-2.25,0-2.34,1.81-2.44,3.64-2.41V7.92c0-.61-.08-1-.79-1s-.75.52-.75,1.08H78a2,2,0,0,1,.73-1.73,3.12,3.12,0,0,1,1.85-.46c2.5,0,2.83,1.08,2.83,2.37Zm-3.64-.89c0,.51.08,1.12.72,1.12,1.17,0,1-1.56,1-2.33C80.48,9.61,79.76,9.52,79.76,10.78Z" transform="translate(-0.13 -0.4)"/><path class="cls-3" d="M86.62,2.88V13h-2V2.88Z" transform="translate(-0.13 -0.4)"/><path class="cls-3" d="M90,2.88V4.43H88V2.88ZM90,13H88V5.91h2Z" transform="translate(-0.13 -0.4)"/><path class="cls-3" d="M94.6,4.09c-.8,0-1,.25-1,1v.85h.92V7.13h-.92V13h-2V7.13h-.89V5.91h.9c0-2-.18-3.1,2.23-3.1l.7,0Z" transform="translate(-0.13 -0.4)"/><path class="cls-3" d="M94.93,9.36c0-1.94.28-3.59,2.89-3.59s2.88,1.65,2.88,3.59c0,2.21-.34,3.76-2.88,3.76S94.93,11.57,94.93,9.36Zm3.8-.11c0-1.48-.07-2.22-.91-2.22s-.91.74-.91,2.22c0,2.15.18,2.61.91,2.61S98.73,11.4,98.73,9.25Z" transform="translate(-0.13 -0.4)"/><path class="cls-3" d="M103.63,5.91v.91h0a1.8,1.8,0,0,1,1.84-1.05V7.54c-1.74-.12-1.77.89-1.77,1.59V13h-2V5.91Z" transform="translate(-0.13 -0.4)"/><path class="cls-3" d="M108.09,6.63h0a1.76,1.76,0,0,1,1.67-.86,1.6,1.6,0,0,1,1.76,1.54V13h-2V8.11c0-.63-.12-1.12-.75-1.12s-.74.49-.74,1.12V13h-2V5.91h2Z" transform="translate(-0.13 -0.4)"/><path class="cls-3" d="M114.84,2.88V4.43h-2V2.88Zm0,10.1h-2V5.91h2Z" transform="translate(-0.13 -0.4)"/><path class="cls-3" d="M121.53,11.67c0,.43.06.88.1,1.31H119.8l-.09-.94h0a2,2,0,0,1-1.84,1.08c-1.38,0-1.88-1-1.88-2.25,0-2.34,1.81-2.44,3.64-2.41V7.92c0-.61-.08-1-.8-1s-.74.52-.74,1.08h-1.93a1.93,1.93,0,0,1,.73-1.73,3.1,3.1,0,0,1,1.85-.46c2.5,0,2.82,1.08,2.82,2.37Zm-3.64-.89c0,.51.09,1.12.73,1.12,1.16,0,1-1.56,1-2.33C118.62,9.61,117.89,9.52,117.89,10.78Z" transform="translate(-0.13 -0.4)"/><path class="cls-3" d="M50.89,26.15c-2.62,0-3.11-1.54-3-3.29H50c0,1,0,1.78,1.2,1.78a1,1,0,0,0,1.06-1.15c0-1.82-4.25-1.93-4.25-4.94,0-1.58.75-2.84,3.33-2.84,2.06,0,3.08.92,2.94,3H52.23c0-.76-.12-1.53-1-1.53a1,1,0,0,0-1.09,1.08c0,1.91,4.26,1.75,4.26,4.93C54.42,25.84,52.5,26.15,50.89,26.15Z" transform="translate(-0.13 -0.4)"/><path class="cls-3" d="M54.74,18.91h.8V17.79l2-.88v2h1v1.22h-1v3.78c0,.53,0,.88.63.88a1.89,1.89,0,0,0,.35,0V26a7.83,7.83,0,0,1-1,.07c-1.71,0-1.93-1.13-1.93-1.57V20.13h-.8Z" transform="translate(-0.13 -0.4)"/><path class="cls-3" d="M64.65,24.67c0,.43.06.88.1,1.31H62.91l-.08-.93h0A2,2,0,0,1,61,26.12c-1.37,0-1.87-1-1.87-2.25,0-2.34,1.8-2.44,3.64-2.41v-.54c0-.61-.09-1-.8-1s-.74.52-.74,1.08H59.25A2,2,0,0,1,60,19.23a3.14,3.14,0,0,1,1.85-.46c2.51,0,2.83,1.08,2.83,2.37ZM61,23.78c0,.51.08,1.12.73,1.12,1.16,0,1-1.56,1-2.33C61.74,22.61,61,22.52,61,23.78Z" transform="translate(-0.13 -0.4)"/><path class="cls-3" d="M65.2,18.91H66V17.79l2-.88v2h1v1.22H68v3.78c0,.53,0,.88.63.88a1.94,1.94,0,0,0,.35,0V26a7.83,7.83,0,0,1-1,.07c-1.71,0-1.94-1.13-1.94-1.57V20.13H65.2Z" transform="translate(-0.13 -0.4)"/><path class="cls-3" d="M71.41,22.76c0,.84,0,2.1.9,2.1.7,0,.84-.67.84-1.26h2a2.53,2.53,0,0,1-.76,1.84,3,3,0,0,1-2.08.68c-2.55,0-2.89-1.55-2.89-3.76,0-1.94.28-3.59,2.89-3.59s3,1.73,2.88,4Zm1.81-1.1c0-.69,0-1.67-.91-1.67s-.9,1.07-.9,1.67Z" transform="translate(-0.13 -0.4)"/><path class="cls-3" d="M86.34,15.88V23c0,1.52-.86,3.11-3.43,3.11-2.33,0-3.45-1.2-3.45-3.11V15.88h2.12v7c0,1.25.53,1.74,1.3,1.74.92,0,1.34-.62,1.34-1.74v-7Z" transform="translate(-0.13 -0.4)"/><path class="cls-3" d="M89.58,19.63h0a1.77,1.77,0,0,1,1.67-.86A1.6,1.6,0,0,1,93,20.31V26h-2V21.11c0-.63-.11-1.12-.74-1.12s-.75.49-.75,1.12V26h-2V18.91h2Z" transform="translate(-0.13 -0.4)"/><path class="cls-3" d="M96.4,15.88v1.55h-2V15.88Zm0,10.1h-2V18.91h2Z" transform="translate(-0.13 -0.4)"/><path class="cls-3" d="M97.13,18.91h2l1,5.31h0l1-5.31h1.93L101.18,26H99Z" transform="translate(-0.13 -0.4)"/><path class="cls-3" d="M105.49,22.76c0,.84,0,2.1.89,2.1.7,0,.84-.67.84-1.26h2a2.53,2.53,0,0,1-.76,1.84,3,3,0,0,1-2.09.68c-2.54,0-2.88-1.55-2.88-3.76,0-1.94.28-3.59,2.88-3.59s3,1.73,2.89,4Zm1.8-1.1c0-.69,0-1.67-.91-1.67s-.89,1.07-.89,1.67Z" transform="translate(-0.13 -0.4)"/><path class="cls-3" d="M112.19,18.91v.91h0a1.8,1.8,0,0,1,1.84-1.05v1.77c-1.74-.12-1.77.89-1.77,1.59V26h-2V18.91Z" transform="translate(-0.13 -0.4)"/><path class="cls-3" d="M116.23,23.72a2.06,2.06,0,0,0,.09.85c.12.22.33.33.72.33a.69.69,0,0,0,.73-.72c0-1.5-3.48-1.16-3.48-3.42,0-1.53,1.52-2,2.79-2s2.56.65,2.45,2.17H117.6c0-.49-.06-.78-.2-.91a.67.67,0,0,0-.5-.15c-.44,0-.67.28-.67.75,0,1.12,3.47,1.07,3.47,3.34,0,1.23-1,2.15-2.65,2.15s-2.87-.43-2.76-2.4Z" transform="translate(-0.13 -0.4)"/><path class="cls-3" d="M122.62,15.88v1.55h-2V15.88Zm0,10.1h-2V18.91h2Z" transform="translate(-0.13 -0.4)"/><path class="cls-3" d="M123.28,18.91h.8V17.79l2-.88v2h1v1.22h-1v3.78c0,.53,0,.88.63.88a1.83,1.83,0,0,0,.35,0V26a7.56,7.56,0,0,1-1,.07c-1.71,0-1.93-1.13-1.93-1.57V20.13h-.8Z" transform="translate(-0.13 -0.4)"/><path class="cls-3" d="M129.16,26l-1.92-7.13h2l1,5h0l1.06-5h1.91l-2.73,9.75h-2.07Z" transform="translate(-0.13 -0.4)"/></svg>