<?xml version="1.0" encoding="utf-8"?>
<!-- Generator: Adobe Illustrator 22.0.1, SVG Export Plug-In . SVG Version: 6.00 Build 0)  -->
<svg version="1.1" id="Layer_1" xmlns="http://www.w3.org/2000/svg" xmlns:xlink="http://www.w3.org/1999/xlink" x="0px" y="0px"
	 viewBox="0 0 16.2 14.8" style="enable-background:new 0 0 16.2 14.8;" xml:space="preserve">
<style type="text/css">
	.st0{fill:#231F20;}
</style>
<path id="Path_36" class="st0" d="M11.7,0C10.3,0,9,0.6,8.1,1.7C7.2,0.6,5.9,0,4.5,0C2,0,0,1.9,0,4.3v0.1c0,3.1,2.8,5.6,7,9.3
	l1.1,1.1l1.1-1.1c4.1-3.8,7-6.3,7-9.3C16.2,2,14.3,0,11.9,0C11.8,0,11.8,0,11.7,0z M8.2,12.6L8.2,12.6L8,12.5
	C4.1,9.1,1.6,6.8,1.6,4.4c0-1.5,1.2-2.8,2.7-2.8h0.1c1.3,0,2.4,0.8,2.9,1.9h1.5c0.5-1.2,1.6-1.9,2.8-1.9c1.5,0,2.8,1.2,2.8,2.7v0.1
	C14.6,6.8,12.1,9.1,8.2,12.6z"/>
</svg>
