<svg xmlns="http://www.w3.org/2000/svg" viewBox="6054 507 16.191 14.815">
  <defs>
    <style>
      .cls-1 {
        fill: #fff;
      }
    </style>
  </defs>
  <path id="Path_36" data-name="Path 36" class="cls-1" d="M11.739,21.675a4.865,4.865,0,0,0-3.643,1.7,4.865,4.865,0,0,0-3.643-1.7A4.389,4.389,0,0,0,0,26.128c0,3.076,2.753,5.586,6.962,9.31L8.1,36.49l1.133-1.052c4.129-3.8,6.962-6.315,6.962-9.31A4.389,4.389,0,0,0,11.739,21.675ZM8.177,34.3H8.1l-.081-.081c-3.886-3.481-6.4-5.748-6.4-8.1a2.767,2.767,0,0,1,2.833-2.833,3.288,3.288,0,0,1,2.914,1.943H8.905a3.086,3.086,0,0,1,2.833-1.943,2.767,2.767,0,0,1,2.833,2.833C14.572,28.475,12.063,30.742,8.177,34.3Z" transform="translate(6054 485.325)"/>
</svg>
