<?xml version="1.0" encoding="utf-8"?>
<!-- Generator: Adobe Illustrator 22.0.1, SVG Export Plug-In . SVG Version: 6.00 Build 0)  -->
<svg version="1.1" id="Layer_1" xmlns="http://www.w3.org/2000/svg" xmlns:xlink="http://www.w3.org/1999/xlink" x="0px" y="0px"
	 viewBox="0 0 15 15" style="enable-background:new 0 0 15 15;" xml:space="preserve">
<style type="text/css">
	.st0{fill:#231F20;}
</style>
<path id="Path_87" class="st0" d="M0,1.7h1.7V0C0.7,0,0,0.7,0,1.7z M0,8.3h1.7V6.7H0V8.3z M3.3,15H5v-1.7H3.3V15z M0,5h1.7V3.3H0V5z
	 M8.3,0H6.7v1.7h1.7V0z M13.3,0v1.7H15C15,0.7,14.3,0,13.3,0z M1.7,15v-1.7H0C0,14.3,0.7,15,1.7,15z M0,11.7h1.7V10H0V11.7z M5,0
	H3.3v1.7H5V0z M6.7,15h1.7v-1.7H6.7V15z M13.3,8.3H15V6.7h-1.7L13.3,8.3z M13.3,15c0.9,0,1.7-0.7,1.7-1.7h-1.7L13.3,15z M13.3,5H15
	V3.3h-1.7L13.3,5z M13.3,11.7H15V10h-1.7L13.3,11.7z M10,15h1.7v-1.7H10V15z M10,1.7h1.7V0H10V1.7z M3.3,11.7h8.3V3.3H3.3L3.3,11.7z
	 M5,5h5v5H5V5z"/>
</svg>
