<svg xmlns="http://www.w3.org/2000/svg" viewBox="6439 269 15 15">
  <path id="Path_87" data-name="Path 87" d="M0,1.667H1.667V0A1.672,1.672,0,0,0,0,1.667ZM0,8.333H1.667V6.667H0ZM3.333,15H5V13.333H3.333ZM0,5H1.667V3.333H0ZM8.333,0H6.667V1.667H8.333Zm5,0V1.667H15A1.672,1.672,0,0,0,13.333,0ZM1.667,15V13.333H0A1.672,1.672,0,0,0,1.667,15ZM0,11.667H1.667V10H0ZM5,0H3.333V1.667H5ZM6.667,15H8.333V13.333H6.667Zm6.667-6.667H15V6.667H13.333Zm0,6.667A1.672,1.672,0,0,0,15,13.333H13.333Zm0-10H15V3.333H13.333Zm0,6.667H15V10H13.333ZM10,15h1.667V13.333H10ZM10,1.667h1.667V0H10Zm-6.667,10h8.333V3.333H3.333ZM5,5h5v5H5Z" transform="translate(6439 269)"/>
</svg>
