<?xml version="1.0" encoding="utf-8"?>
<!-- Generator: Adobe Illustrator 22.0.1, SVG Export Plug-In . SVG Version: 6.00 Build 0)  -->
<svg version="1.1" id="Layer_1" xmlns="http://www.w3.org/2000/svg" xmlns:xlink="http://www.w3.org/1999/xlink" x="0px" y="0px"
	 viewBox="0 0 418.6 207" style="enable-background:new 0 0 418.6 207;" xml:space="preserve">
<style type="text/css">
	.st0{fill:#009DDC;}
	.st1{fill:#FFFFFF;}
</style>
<g>
	<rect y="71.5" class="st0" width="112.9" height="63.9"/>
	<rect class="st0" width="418.6" height="63.9"/>
	<rect y="143.1" class="st0" width="418.6" height="63.9"/>
	<path class="st1" d="M15.8,36V11.1h7v24c0,8.9,3.3,12.5,10.9,12.5c7.2,0,10.4-4.2,10.4-11.7V11.1h6.5v24.2
		c0,11.1-5.5,18.1-17.2,18.1C21.3,53.5,15.8,46.6,15.8,36z"/>
	<path class="st1" d="M66.4,11.1h7l18.4,25.2c2.4,3.3,4.2,6.9,4.3,6.9h0.2c0,0-0.3-3.2-0.3-6.4V11.1h6.3v41.6h-6.3L76.4,26
		c-2-2.8-3.7-6.2-3.7-6.2h-0.1c0,0,0.2,2.8,0.2,5.4v27.5h-6.5V11.1z"/>
	<path class="st1" d="M118.7,11.1h7v41.6h-7V11.1z"/>
	<path class="st1" d="M137.3,11.1h7.4l10.5,27.3c1.2,3.1,2.4,7,2.4,7.1h0.2c0-0.1,1.2-4,2.4-7.1l10.1-27.3h6.7L161,52.7h-6.8
		L137.3,11.1z"/>
	<path class="st1" d="M188.5,11.1h25.4v5.7h-18.5v11.4h16.5v5.5h-16.5v13.3h18.9v5.7h-25.8V11.1z"/>
	<path class="st1" d="M228.5,11.1h13c9.7,0,15.3,4,15.3,11.5c0,7.1-5.2,10.3-11.4,10.9v0.1c0.9,0.6,2.4,2.2,4.9,5.7l9.9,13.4h-8
		l-8.4-11.9c-4.1-5.7-5.1-6.2-7.6-6.2h-0.7v18.1h-7V11.1z M241.3,29.4c5.8,0,8.3-2.2,8.3-6.5c0-4.4-2.7-6.4-8.7-6.4h-5.5v12.9H241.3
		z"/>
	<path class="st1" d="M268.3,49.3l3.1-4.9c1.1,0.8,4.2,3.4,9.7,3.4c4.9,0,8.2-2.2,8.2-5.8c0-4.4-4-5.6-10-8.4
		c-5.3-2.4-9.9-5.4-9.9-12c0-7.3,6.2-11.2,13.4-11.2c6.8,0,10.3,2.2,12.1,3.4l-3,4.9c-1.5-1-4.7-2.7-8.8-2.7c-4,0-6.9,1.7-6.9,5.3
		c0,4,3.5,5.2,8,7.2C290,31,296,34,296,41.6c0,7.3-5.8,11.8-14.8,11.8C274.3,53.5,270,50.9,268.3,49.3z"/>
	<path class="st1" d="M309.7,11.1h7v41.6h-7V11.1z"/>
	<path class="st1" d="M341.1,16.9h-12.7v-5.8h32.5v5.8h-12.7v35.8h-7V16.9z"/>
	<path class="st1" d="M383.1,36.9l-14.6-25.8h7.6l10.7,19.8h0.2l10.5-19.8h6.8L390,36.9v15.8h-6.9V36.9z"/>
	<path class="st1" d="M13.4,175c0-11.6,7.9-21.5,22-21.5c5.6,0,9.3,1.2,12.5,3.3l-3.3,5.2c-2.4-1.6-5.4-2.7-9.4-2.7
		c-9.5,0-14.4,6.6-14.4,15.5c0,9.2,4.7,16,14.6,16c4.7,0,7.9-1.6,10.3-3.3l2.9,4.9c-2.3,1.9-7.1,4.2-13.4,4.2
		C21.1,196.6,13.4,186.6,13.4,175z"/>
	<path class="st1" d="M71.9,154.3h6.8l16.9,41.6h-7.3l-3.6-9.1H65.4l-3.4,9.1h-6.9L71.9,154.3z M82.6,181.1l-4.9-12.7
		c-1.4-3.6-2.6-7.5-2.6-7.5h-0.2c0,0-1.3,4.1-2.6,7.5l-4.9,12.7H82.6z"/>
	<path class="st1" d="M105.8,154.3h7.1v35.9h17.6v5.7h-24.7V154.3z"/>
	<path class="st1" d="M142.3,154.3h7v41.6h-7V154.3z"/>
	<path class="st1" d="M164.8,154.3h25v5.7h-18v11.8h15.9v5.6h-15.9v18.5h-7V154.3z"/>
	<path class="st1" d="M198.8,175.2c0-11.4,8-21.7,21.9-21.7c13.9,0,21.9,10,21.9,21.4c0,11.4-7.9,21.7-21.8,21.7
		C206.9,196.6,198.8,186.6,198.8,175.2z M235.3,175.2c0-8.6-4.8-16-14.4-16c-9.6,0-14.7,7.4-14.7,15.8c0,8.6,4.9,15.9,14.5,15.9
		C230.3,190.9,235.3,183.7,235.3,175.2z"/>
	<path class="st1" d="M253,154.3h13.1c9.7,0,15.3,4,15.3,11.5c0,7.1-5.2,10.3-11.4,10.9v0.2c0.9,0.6,2.4,2.2,5,5.7l9.9,13.4h-8
		l-8.4-11.9c-4.1-5.7-5.1-6.2-7.6-6.2H260v18.1h-7V154.3z M265.9,172.6c5.8,0,8.3-2.2,8.3-6.5c0-4.4-2.8-6.4-8.8-6.4H260v12.9H265.9
		z"/>
	<path class="st1" d="M295,154.3h7l18.4,25.2c2.3,3.3,4.2,6.9,4.3,6.9h0.2c0,0-0.3-3.2-0.3-6.4v-25.7h6.3v41.6h-6.3L305,169.2
		c-1.9-2.9-3.7-6.2-3.7-6.2h-0.1c0,0,0.2,2.8,0.2,5.3v27.5H295V154.3z"/>
	<path class="st1" d="M346.2,154.3h7v41.6h-7V154.3z"/>
	<path class="st1" d="M380.6,154.3h6.8l16.9,41.6H397l-3.6-9.1h-19.3l-3.4,9.1h-6.9L380.6,154.3z M391.4,181.1l-4.9-12.7
		c-1.4-3.6-2.6-7.5-2.6-7.5h-0.2c0,0-1.3,4.1-2.6,7.5l-4.9,12.7H391.4z"/>
	<path class="st1" d="M13.4,103.6c0-11.4,8-21.7,21.9-21.7c13.9,0,21.9,10,21.9,21.4c0,11.4-7.9,21.7-21.8,21.7
		C21.6,125.1,13.4,115.1,13.4,103.6z M49.9,103.6c0-8.6-4.8-16-14.4-16c-9.6,0-14.6,7.4-14.6,15.8c0,8.6,4.9,16,14.5,16
		C45,119.4,49.9,112.1,49.9,103.6z"/>
	<path class="st1" d="M69.6,82.8h25v5.7h-18v11.8h15.9v5.6H76.6v18.5h-7V82.8z"/>
</g>
</svg>
